<svg width="551" height="550" viewBox="0 0 551 550" fill="none" xmlns="http://www.w3.org/2000/svg">
<path d="M404.079 110.203C405.763 107.517 406.933 104.304 406.933 100.625C406.933 90.6858 398.784 84.3496 392.32 80.7202C385.033 76.6283 375.152 73.271 363.805 70.576C340.952 65.1484 309.89 61.8887 275.937 61.8887C241.983 61.8887 210.922 65.1484 188.069 70.576C176.721 73.271 166.84 76.6283 159.553 80.7202C153.089 84.3496 144.94 90.6858 144.94 100.625C144.94 102.607 145.286 104.489 145.887 106.238L173.827 456.723C174.088 465.424 181.252 470.711 186.163 473.469C191.989 476.74 199.755 479.358 208.49 481.433C226.117 485.619 249.958 488.111 275.937 488.111C301.916 488.111 325.757 485.619 343.384 481.433C352.118 479.358 359.885 476.74 365.711 473.469C370.627 470.708 377.801 465.412 378.047 456.695L404.079 110.203Z" fill="white" stroke="white" stroke-width="20"/>
<path d="M391.333 103.933L390.435 104.943L390.334 106.291L364.065 455.934L364.053 456.084V456.234C364.053 456.866 363.381 458.721 358.856 461.262C354.661 463.618 348.324 465.87 340.149 467.812C323.862 471.68 301.158 474.111 275.937 474.111C250.716 474.111 228.012 471.68 211.725 467.812C203.55 465.87 197.213 463.618 193.017 461.262C188.492 458.721 187.82 456.866 187.82 456.234V456.074L187.807 455.916L159.722 103.618L159.663 102.872L159.337 102.197C159.046 101.595 158.94 101.081 158.94 100.625C158.94 99.0462 160.421 96.2888 166.407 92.9274C172.064 89.751 180.515 86.7593 191.304 84.1971C212.817 79.0878 242.741 75.8887 275.937 75.8887C309.132 75.8887 339.056 79.0878 360.57 84.1971C371.358 86.7593 379.809 89.751 385.466 92.9274C391.452 96.2888 392.933 99.0462 392.933 100.625C392.933 101.415 392.603 102.504 391.333 103.933Z" fill="white" stroke="#204865" stroke-width="8"/>
<path d="M392.933 100.625C392.933 102.204 391.452 104.962 385.466 108.323C379.809 111.5 371.358 114.491 360.57 117.053C339.057 122.163 309.132 125.362 275.937 125.362C242.741 125.362 212.817 122.163 191.304 117.053C180.515 114.491 172.064 111.5 166.407 108.323C160.421 104.962 158.94 102.204 158.94 100.625C158.94 99.0463 160.421 96.2889 166.407 92.9275C172.064 89.751 180.515 86.7594 191.304 84.1972C212.817 79.0878 242.741 75.8887 275.937 75.8887C309.132 75.8887 339.057 79.0878 360.57 84.1972C371.358 86.7594 379.809 89.751 385.466 92.9275C391.452 96.2889 392.933 99.0463 392.933 100.625Z" stroke="#204865" stroke-width="8"/>
<path d="M322.431 173.487C336.919 173.487 360.296 185.194 370.174 191.048L366.953 226.736L343.694 230.395L190.567 217.71C187.721 215.217 181.924 208.829 181.5 203.217C181.077 197.605 185.467 183.532 186.89 181.814C193.887 177.707 201.643 179.38 228.593 191.048C250.751 200.641 304.322 173.487 322.431 173.487Z" fill="#D7A356"/>
<path d="M200.083 437.452L181.423 203.17C188.308 201.271 197.091 181.805 236.973 181.805C273.301 181.805 293.353 203.17 319.703 203.17C340.784 203.17 363.42 195.041 370.542 189.819L350.14 440.255C349.749 445.047 346.549 449.158 341.917 450.448C326.818 454.652 300.372 460.264 274.718 460.264C248.597 460.264 221.996 452.735 207.296 447.265C203.158 445.725 200.434 441.852 200.083 437.452Z" fill="#FFC46B"/>
<circle cx="227.221" cy="296.618" r="21.6178" fill="#204865"/>
<path d="M335.654 438.166C319.707 434.845 298.811 432.833 275.937 432.833C253.062 432.833 232.167 434.845 216.22 438.166" stroke="#EAB25E" stroke-width="8" stroke-linecap="round"/>
<circle cx="226.113" cy="227.442" r="15.7869" fill="#FFE3B8"/>
<circle cx="324.744" cy="296.618" r="21.6178" fill="#204865"/>
<circle cx="249.336" cy="203.761" r="7.8935" fill="#FFE3B8"/>
<circle cx="232.588" cy="291.251" r="7.2384" fill="white"/>
<circle cx="214.272" cy="193.954" r="3.94678" fill="#FFE3B8"/>
<circle cx="330.111" cy="291.251" r="7.2384" fill="white"/>
<circle cx="261.176" cy="237.462" r="3.94678" fill="#FFE3B8"/>
<path d="M295.773 336.266C295.773 346.308 286.017 354.448 273.982 354.448C261.948 354.448 252.191 346.308 252.191 336.266" stroke="#204865" stroke-width="12" stroke-linecap="round"/>
</svg>
