<svg width="551" height="550" viewBox="0 0 551 550" fill="none" xmlns="http://www.w3.org/2000/svg">
<ellipse cx="277.115" cy="279.373" rx="69.9531" ry="59.6213" fill="white"/>
<path d="M275.254 457.435C376.01 457.435 457.689 375.756 457.689 275C457.689 174.244 376.01 92.5652 275.254 92.5652C174.498 92.5652 92.8191 174.244 92.8191 275C92.8191 375.756 174.498 457.435 275.254 457.435ZM322.768 275C322.768 301.241 301.495 322.514 275.254 322.514C249.013 322.514 227.74 301.241 227.74 275C227.74 248.759 249.013 227.486 275.254 227.486C301.495 227.486 322.768 248.759 322.768 275Z" fill="#FFD595" stroke="white" stroke-width="20"/>
<path fill-rule="evenodd" clip-rule="evenodd" d="M275.254 447.435C370.487 447.435 447.689 370.233 447.689 275C447.689 179.767 370.487 102.565 275.254 102.565C180.021 102.565 102.819 179.767 102.819 275C102.819 370.233 180.021 447.435 275.254 447.435ZM275.254 332.514C307.018 332.514 332.768 306.764 332.768 275C332.768 243.236 307.018 217.486 275.254 217.486C243.49 217.486 217.74 243.236 217.74 275C217.74 306.764 243.49 332.514 275.254 332.514Z" fill="#FFD595"/>
<mask id="mask0_128_353" style="mask-type:alpha" maskUnits="userSpaceOnUse" x="102" y="102" width="346" height="346">
<path fill-rule="evenodd" clip-rule="evenodd" d="M206.124 432.971C293.369 471.15 395.045 431.375 433.225 344.13C471.404 256.885 431.629 155.209 344.384 117.029C257.139 78.8495 155.462 118.625 117.283 205.87C79.1035 293.115 118.879 394.791 206.124 432.971ZM252.196 327.69C281.296 340.424 315.209 327.157 327.944 298.058C340.678 268.958 327.411 235.044 298.312 222.31C269.212 209.576 235.298 222.842 222.564 251.942C209.83 281.042 223.096 314.955 252.196 327.69Z" fill="#FFD595"/>
</mask>
<g mask="url(#mask0_128_353)">
<path d="M52.1961 311.056C46.2689 293.484 60.1341 215.126 105.643 132.915L182.221 7.45874C188.072 -2.12569 199.785 -6.37249 210.419 -2.76413L408.281 64.3794C411.997 65.6405 415.348 67.7939 418.039 70.6508L513.308 171.794C518.102 176.884 520.456 183.812 519.631 190.756C512.907 247.317 496.578 338.711 475.703 323.453C447.848 303.093 448.067 252.807 421.992 278.162C395.918 303.517 416.842 352.163 403.556 354.519C390.27 356.875 388.055 368.16 353.416 313.513C318.778 258.866 296.628 328.151 259.63 303.79C222.631 279.429 220.625 349.358 194.627 321.641C168.629 293.924 181.266 355.283 155.051 356.067C128.836 356.85 131.769 315.921 112.343 285.633C92.9168 255.344 58.1233 328.628 52.1961 311.056Z" fill="#FF7ECC"/>
</g>
<circle cx="226.492" cy="360.612" r="21.6178" fill="#614329"/>
<path d="M443.689 275C443.689 368.024 368.278 443.435 275.254 443.435C182.23 443.435 106.819 368.024 106.819 275C106.819 181.976 182.23 106.565 275.254 106.565C368.278 106.565 443.689 181.976 443.689 275ZM275.254 336.514C309.227 336.514 336.768 308.973 336.768 275C336.768 241.027 309.227 213.486 275.254 213.486C241.281 213.486 213.74 241.027 213.74 275C213.74 308.973 241.281 336.514 275.254 336.514Z" stroke="url(#paint0_linear_128_353)" stroke-width="8"/>
<circle cx="324.016" cy="360.612" r="21.6178" fill="#614329"/>
<circle cx="231.859" cy="355.246" r="7.2384" fill="white"/>
<circle cx="329.382" cy="355.246" r="7.2384" fill="white"/>
<path d="M295.045 400.261C295.045 410.302 285.289 418.443 273.254 418.443C261.219 418.443 251.463 410.302 251.463 400.261" stroke="#614329" stroke-width="12" stroke-linecap="round"/>
<path d="M144.604 218.152L150.984 242.2" stroke="#614329" stroke-width="12" stroke-linecap="round"/>
<path d="M214.973 156.856L190.151 155.165" stroke="white" stroke-width="12" stroke-linecap="round"/>
<path d="M285.801 142.361L264.706 143.133" stroke="#614329" stroke-width="12" stroke-linecap="round"/>
<path d="M154.861 312.667L140.727 296.989" stroke="white" stroke-width="12" stroke-linecap="round"/>
<path d="M171.627 274.47L187.659 260.738" stroke="#614329" stroke-width="12" stroke-linecap="round"/>
<path d="M378.352 163.872L385.248 183.823" stroke="white" stroke-width="12" stroke-linecap="round"/>
<path d="M325.182 161.621L339.837 146.429" stroke="white" stroke-width="12" stroke-linecap="round"/>
<path d="M228.81 202.769L238.117 183.823" stroke="#613629" stroke-width="12" stroke-linecap="round"/>
<path d="M192.116 217.706L176.478 203.527" stroke="white" stroke-width="12" stroke-linecap="round"/>
<path d="M399.369 223.724L416.075 236.628" stroke="white" stroke-width="12" stroke-linecap="round"/>
<path d="M353.181 199.295L356.809 220.09" stroke="#614329" stroke-width="12" stroke-linecap="round"/>
<path d="M370.219 275L387.521 287.092" stroke="#614329" stroke-width="12" stroke-linecap="round"/>
<path d="M291.844 189.808L312.952 189.93" stroke="white" stroke-width="12" stroke-linecap="round"/>
<defs>
<linearGradient id="paint0_linear_128_353" x1="170.792" y1="138.232" x2="377.822" y2="431.078" gradientUnits="userSpaceOnUse">
<stop stop-color="#FF58BC"/>
<stop offset="1" stop-color="#BE965C"/>
</linearGradient>
</defs>
</svg>
