<svg width="550" height="550" viewBox="0 0 550 550" fill="none" xmlns="http://www.w3.org/2000/svg">
<path d="M165.131 462.702L143.148 171.787L171.852 151.846L323.927 132.001L412.9 177.62L379.648 467.34L276.413 486.955L165.131 462.702Z" fill="white"/>
<mask id="path-2-outside-1_128_352" maskUnits="userSpaceOnUse" x="267.564" y="2.64738" width="167.35" height="391.346" fill="black">
<rect fill="white" x="267.564" y="2.64738" width="167.35" height="391.346"/>
<path d="M413.563 42.6169L332.508 364.906C331.233 369.974 321.716 372.013 310.737 369.784L289.343 354.764C289.366 354.534 289.405 354.306 289.462 354.081L370.523 31.767C370.524 31.7655 370.524 31.764 370.524 31.7624C371.889 26.3601 382.624 24.4032 394.508 27.3918C406.394 30.3813 414.928 37.187 413.569 42.5929C413.567 42.6006 413.565 42.6092 413.563 42.6169C413.563 42.6166 413.563 42.6172 413.563 42.6169Z"/>
</mask>
<path d="M413.563 42.6169L332.508 364.906C331.233 369.974 321.716 372.013 310.737 369.784L289.343 354.764C289.366 354.534 289.405 354.306 289.462 354.081L370.523 31.767C370.524 31.7655 370.524 31.764 370.524 31.7624C371.889 26.3601 382.624 24.4032 394.508 27.3918C406.394 30.3813 414.928 37.187 413.569 42.5929C413.567 42.6006 413.565 42.6092 413.563 42.6169C413.563 42.6166 413.563 42.6172 413.563 42.6169Z" fill="white"/>
<path d="M332.508 364.906L351.904 369.784L351.904 369.784L332.508 364.906ZM310.737 369.784L299.244 386.153L302.664 388.554L306.759 389.385L310.737 369.784ZM289.343 354.764L269.44 352.798L268.291 364.421L277.851 371.133L289.343 354.764ZM289.462 354.081L270.066 349.202L270.066 349.203L289.462 354.081ZM370.523 31.767L351.132 26.8717L351.129 26.8803L351.127 26.889L370.523 31.767ZM370.524 31.7624L351.133 26.8649L351.133 26.8658L370.524 31.7624ZM394.508 27.3918L399.386 7.9958L399.386 7.9958L394.508 27.3918ZM413.569 42.5929L394.173 37.7148L394.173 37.7149L413.569 42.5929ZM351.904 369.784L432.959 47.4949L394.167 37.7388L313.112 360.028L351.904 369.784ZM306.759 389.385C314.245 390.904 322.284 391.223 329.578 389.61C335.341 388.336 348.354 383.897 351.904 369.784L313.112 360.028C314.24 355.544 316.975 352.901 318.653 351.728C320.191 350.653 321.211 350.494 320.945 350.553C320.417 350.67 318.207 350.893 314.715 350.184L306.759 389.385ZM277.851 371.133L299.244 386.153L322.229 353.416L300.835 338.396L277.851 371.133ZM270.066 349.203C269.767 350.394 269.559 351.595 269.44 352.798L309.246 356.731C309.173 357.474 309.044 358.219 308.858 358.958L270.066 349.203ZM351.127 26.889L270.066 349.202L308.858 358.959L389.919 36.6451L351.127 26.889ZM389.915 36.6623C389.915 36.6616 389.915 36.6607 389.916 36.6591L351.133 26.8658C351.133 26.8672 351.132 26.8694 351.132 26.8717L389.915 36.6623ZM389.916 36.6599C388.702 41.463 385.673 44.1148 384.049 45.1663C382.553 46.1357 381.668 46.1955 382.157 46.1064C383.095 45.9354 385.806 45.8261 389.63 46.7878L399.386 7.9958C391.326 5.96885 382.727 5.34363 374.986 6.75459C369.19 7.81092 354.913 11.8996 351.133 26.8649L389.916 36.6599ZM389.63 46.7878C393.455 47.7498 395.791 49.129 396.536 49.7227C396.924 50.0325 396.171 49.5599 395.311 47.9948C394.377 46.2962 392.964 42.522 394.173 37.7148L432.965 47.4709C436.732 32.4902 426.082 22.1236 421.476 18.4497C415.321 13.5417 407.447 10.0233 399.386 7.9958L389.63 46.7878ZM394.173 37.7149C394.176 37.7006 394.18 37.688 394.182 37.6773C394.185 37.6666 394.188 37.6546 394.192 37.6414L432.934 47.5924C432.944 47.5533 432.955 47.5122 432.965 47.4708L394.173 37.7149ZM394.243 37.4452C394.243 37.4452 394.243 37.4452 394.243 37.4452C394.243 37.4452 394.243 37.4452 394.243 37.4452C394.243 37.4452 394.243 37.4452 394.243 37.4452C394.243 37.4452 394.243 37.4452 394.243 37.4452C394.243 37.4452 394.243 37.4452 394.243 37.4452C394.243 37.4452 394.243 37.4452 394.243 37.4452C394.243 37.4453 394.243 37.4453 394.243 37.4453C394.243 37.4453 394.243 37.4453 394.243 37.4453C394.243 37.4453 394.243 37.4453 394.243 37.4453C394.243 37.4453 394.243 37.4453 394.243 37.4453C394.243 37.4453 394.243 37.4453 394.243 37.4453C394.243 37.4453 394.243 37.4453 394.243 37.4453C394.243 37.4453 394.243 37.4453 394.243 37.4453C394.243 37.4453 394.243 37.4453 394.243 37.4453C394.243 37.4453 394.243 37.4453 394.243 37.4453C394.243 37.4453 394.243 37.4453 394.243 37.4453C394.243 37.4453 394.243 37.4453 394.243 37.4453C394.243 37.4453 394.243 37.4453 394.243 37.4453C394.243 37.4453 394.243 37.4453 394.243 37.4453C394.243 37.4453 394.243 37.4453 394.243 37.4453C394.243 37.4453 394.243 37.4453 394.243 37.4453C394.243 37.4453 394.243 37.4453 394.243 37.4453C394.243 37.4453 394.243 37.4453 394.243 37.4453C394.243 37.4453 394.243 37.4453 394.243 37.4453C394.243 37.4453 394.243 37.4453 394.243 37.4453C394.243 37.4453 394.243 37.4453 394.243 37.4453C394.243 37.4453 394.243 37.4453 394.243 37.4453C394.243 37.4453 394.243 37.4453 394.243 37.4453C394.243 37.4453 394.243 37.4453 394.243 37.4453C394.243 37.4453 394.243 37.4453 394.243 37.4453C394.243 37.4453 394.243 37.4453 394.243 37.4453C394.243 37.4453 394.243 37.4453 394.243 37.4453C394.243 37.4453 394.243 37.4453 394.243 37.4453C394.243 37.4453 394.243 37.4453 394.243 37.4453C394.243 37.4453 394.243 37.4453 394.243 37.4453C394.243 37.4453 394.243 37.4453 394.243 37.4453C394.243 37.4453 394.243 37.4453 394.243 37.4453C394.243 37.4453 394.243 37.4453 394.243 37.4453C394.243 37.4453 394.243 37.4453 394.243 37.4453C394.243 37.4453 394.243 37.4453 394.243 37.4453C394.243 37.4453 394.243 37.4453 394.243 37.4453C394.243 37.4453 394.243 37.4453 394.243 37.4453C394.243 37.4453 394.243 37.4453 394.243 37.4453C394.243 37.4453 394.243 37.4453 394.243 37.4453C394.243 37.4453 394.243 37.4453 394.243 37.4453C394.243 37.4453 394.243 37.4453 394.243 37.4453C394.243 37.4453 394.243 37.4453 394.243 37.4453C394.243 37.4453 394.243 37.4453 394.243 37.4453C394.243 37.4453 394.243 37.4453 394.243 37.4453C394.243 37.4453 394.243 37.4453 394.243 37.4453C394.243 37.4453 394.243 37.4453 394.243 37.4453C394.243 37.4453 394.243 37.4453 394.243 37.4453C394.243 37.4453 394.243 37.4453 394.243 37.4453C394.243 37.4453 394.243 37.4453 394.243 37.4453C394.243 37.4453 394.243 37.4453 394.243 37.4453C394.243 37.4453 394.243 37.4453 394.243 37.4453C394.243 37.4453 394.243 37.4453 394.243 37.4453C394.243 37.4453 394.243 37.4453 394.243 37.4453C394.243 37.4453 394.243 37.4453 394.243 37.4453C394.243 37.4453 394.243 37.4453 394.243 37.4453C394.243 37.4453 394.243 37.4453 394.243 37.4453C394.243 37.4453 394.243 37.4453 394.243 37.4453C394.243 37.4453 394.243 37.4453 394.243 37.4453C394.243 37.4453 394.243 37.4453 394.243 37.4453C394.243 37.4453 394.243 37.4453 394.243 37.4453C394.243 37.4453 394.243 37.4453 394.243 37.4453C394.243 37.4453 394.243 37.4453 394.243 37.4453C394.243 37.4453 394.243 37.4453 394.243 37.4453C394.243 37.4453 394.243 37.4453 394.243 37.4453C394.243 37.4453 394.243 37.4453 394.243 37.4453C394.243 37.4453 394.243 37.4453 394.243 37.4453C394.243 37.4453 394.243 37.4453 394.243 37.4453C394.243 37.4453 394.243 37.4453 394.243 37.4453C394.243 37.4453 394.243 37.4453 394.243 37.4453C394.243 37.4453 394.243 37.4453 394.243 37.4453C394.243 37.4453 394.243 37.4453 394.243 37.4453C394.243 37.4453 394.243 37.4453 394.243 37.4453C394.243 37.4453 394.243 37.4453 394.243 37.4453C394.243 37.4453 394.243 37.4453 394.243 37.4453C394.243 37.4453 394.243 37.4453 394.243 37.4453C394.243 37.4453 394.243 37.4453 394.243 37.4453C394.243 37.4453 394.243 37.4453 394.243 37.4453C394.243 37.4453 394.243 37.4453 394.243 37.4453C394.243 37.4453 394.243 37.4453 394.243 37.4453C394.243 37.4453 394.243 37.4453 394.243 37.4453C394.243 37.4453 394.243 37.4453 394.243 37.4453C394.243 37.4453 394.243 37.4453 394.243 37.4453C394.243 37.4453 394.243 37.4453 394.243 37.4453C394.243 37.4453 394.243 37.4453 394.243 37.4453C394.243 37.4453 394.243 37.4453 394.243 37.4453C394.243 37.4453 394.243 37.4453 394.243 37.4453C394.243 37.4453 394.243 37.4453 394.243 37.4453C394.243 37.4453 394.243 37.4453 394.243 37.4453C394.243 37.4453 394.243 37.4453 394.243 37.4453C394.243 37.4453 394.243 37.4453 394.243 37.4453C394.243 37.4453 394.243 37.4453 394.243 37.4453C394.243 37.4453 394.243 37.4453 394.243 37.4453C394.243 37.4453 394.243 37.4453 394.243 37.4453C394.243 37.4453 394.243 37.4453 394.243 37.4453C394.243 37.4453 394.243 37.4453 394.243 37.4453C394.243 37.4453 394.243 37.4453 394.243 37.4453C394.243 37.4453 394.243 37.4453 394.243 37.4453C394.243 37.4453 394.243 37.4453 394.243 37.4453C394.243 37.4453 394.243 37.4453 394.243 37.4453C394.243 37.4453 394.243 37.4453 394.243 37.4453C394.243 37.4453 394.243 37.4453 394.243 37.4453C394.243 37.4453 394.243 37.4453 394.243 37.4453C394.243 37.4453 394.243 37.4453 394.243 37.4453C413.995 22.6216 432.883 47.7886 432.883 47.7886C432.883 47.7886 432.883 47.7886 432.883 47.7886C432.883 47.7886 432.883 47.7886 432.883 47.7886C432.883 47.7886 432.883 47.7886 432.883 47.7886C432.883 47.7886 432.883 47.7886 432.883 47.7886C432.883 47.7886 432.883 47.7886 432.883 47.7886C432.883 47.7886 432.883 47.7886 432.883 47.7886C432.883 47.7886 432.883 47.7886 432.883 47.7886C432.883 47.7886 432.883 47.7886 432.883 47.7886C432.883 47.7886 432.883 47.7886 432.883 47.7886C432.883 47.7886 432.883 47.7886 432.883 47.7886C432.883 47.7886 432.883 47.7886 432.883 47.7886C432.883 47.7886 432.883 47.7886 432.883 47.7886C432.883 47.7886 432.883 47.7886 432.883 47.7886C432.883 47.7886 432.883 47.7886 432.883 47.7886C432.883 47.7886 432.883 47.7886 432.883 47.7886C432.883 47.7886 432.883 47.7886 432.883 47.7886C432.883 47.7886 432.883 47.7886 432.883 47.7886C432.883 47.7886 432.883 47.7886 432.883 47.7886C432.883 47.7886 432.883 47.7886 432.883 47.7886C432.883 47.7886 432.883 47.7886 432.883 47.7886C432.883 47.7886 432.883 47.7886 432.883 47.7886C432.883 47.7886 432.883 47.7886 432.883 47.7886C432.883 47.7886 432.883 47.7886 432.883 47.7886C432.883 47.7886 432.883 47.7886 432.883 47.7886C432.883 47.7886 432.883 47.7886 432.883 47.7886C432.883 47.7886 432.883 47.7886 432.883 47.7886C432.883 47.7886 432.883 47.7886 432.883 47.7886C432.883 47.7886 432.883 47.7886 432.883 47.7886C432.883 47.7886 432.883 47.7886 432.883 47.7886C432.883 47.7886 432.883 47.7886 432.883 47.7886C432.883 47.7886 432.883 47.7886 432.883 47.7886C432.883 47.7886 432.883 47.7886 432.883 47.7886C432.883 47.7886 432.883 47.7886 432.883 47.7886C432.883 47.7886 432.883 47.7886 432.883 47.7886C432.883 47.7886 432.883 47.7886 432.883 47.7886C432.883 47.7886 432.883 47.7886 432.883 47.7886C432.883 47.7886 432.883 47.7886 432.883 47.7886C432.883 47.7886 432.883 47.7886 432.883 47.7886C432.883 47.7886 432.883 47.7886 432.883 47.7886C432.883 47.7886 432.883 47.7886 432.883 47.7886C432.883 47.7886 432.883 47.7886 432.883 47.7886C432.883 47.7886 432.883 47.7886 432.883 47.7886C432.883 47.7886 432.883 47.7886 432.883 47.7886C432.883 47.7886 432.883 47.7886 432.883 47.7886C432.883 47.7886 432.883 47.7886 432.883 47.7886C432.883 47.7886 432.883 47.7886 432.883 47.7886C432.883 47.7886 432.883 47.7886 432.883 47.7886C432.883 47.7886 432.883 47.7886 432.883 47.7886C432.883 47.7886 432.883 47.7886 432.883 47.7886C432.883 47.7886 432.883 47.7886 432.883 47.7886C432.883 47.7886 432.883 47.7886 432.883 47.7886C432.883 47.7886 432.883 47.7886 432.883 47.7886C432.883 47.7886 432.883 47.7886 432.883 47.7886C432.883 47.7886 432.883 47.7886 432.883 47.7886C432.883 47.7886 432.883 47.7886 432.883 47.7886C432.883 47.7886 432.883 47.7886 432.883 47.7886C432.883 47.7886 432.883 47.7886 432.883 47.7886C432.883 47.7886 432.883 47.7886 432.883 47.7886C432.883 47.7886 432.883 47.7886 432.883 47.7886C432.883 47.7886 432.883 47.7886 432.883 47.7886C432.883 47.7886 432.883 47.7886 432.883 47.7886C432.883 47.7886 432.883 47.7886 432.883 47.7886C432.883 47.7886 432.883 47.7886 432.883 47.7886C432.883 47.7886 432.883 47.7886 432.883 47.7886C432.883 47.7886 432.883 47.7886 432.883 47.7886C432.883 47.7886 432.883 47.7886 432.883 47.7886C432.883 47.7886 432.883 47.7886 432.883 47.7886C432.883 47.7886 432.883 47.7886 432.883 47.7886C432.883 47.7886 432.883 47.7886 432.883 47.7886C432.883 47.7886 432.883 47.7886 432.883 47.7886C432.883 47.7886 432.883 47.7886 432.883 47.7886C432.883 47.7886 432.883 47.7886 432.883 47.7886C432.883 47.7886 432.883 47.7886 432.883 47.7886C432.883 47.7886 432.883 47.7886 432.883 47.7886C432.883 47.7886 432.883 47.7886 432.883 47.7886C432.883 47.7886 432.883 47.7886 432.883 47.7886C432.883 47.7886 432.883 47.7886 432.883 47.7886C432.883 47.7886 432.883 47.7886 432.883 47.7886C432.883 47.7886 432.883 47.7886 432.883 47.7886C432.883 47.7886 432.883 47.7886 432.883 47.7886C432.883 47.7886 432.883 47.7886 432.883 47.7886C432.883 47.7886 432.883 47.7886 432.883 47.7886C432.883 47.7886 432.883 47.7886 432.883 47.7886C432.883 47.7886 432.883 47.7886 432.883 47.7886C432.883 47.7886 432.883 47.7886 432.883 47.7886C432.883 47.7886 432.883 47.7886 432.883 47.7886C432.883 47.7886 432.883 47.7886 432.883 47.7886C432.883 47.7886 432.883 47.7886 432.883 47.7886C432.883 47.7886 432.883 47.7886 432.883 47.7886C432.883 47.7886 432.883 47.7886 432.883 47.7886C432.883 47.7886 432.883 47.7886 432.883 47.7886C432.883 47.7886 432.883 47.7886 432.883 47.7886C432.883 47.7886 432.883 47.7886 432.883 47.7886C432.883 47.7886 432.883 47.7886 432.883 47.7886C432.883 47.7886 432.883 47.7886 432.883 47.7886C432.883 47.7886 432.883 47.7886 432.883 47.7886C432.883 47.7886 432.883 47.7886 432.883 47.7886C432.883 47.7886 432.883 47.7886 432.883 47.7886C432.883 47.7886 432.883 47.7886 432.883 47.7886C432.883 47.7886 432.883 47.7886 432.883 47.7886C432.883 47.7886 432.883 47.7886 432.883 47.7886C432.883 47.7886 432.883 47.7886 432.883 47.7886C432.883 47.7886 432.883 47.7886 432.883 47.7886C432.883 47.7886 432.883 47.7886 432.883 47.7886C432.883 47.7886 432.883 47.7886 432.883 47.7886C432.883 47.7886 432.883 47.7886 432.883 47.7886C432.883 47.7886 432.883 47.7886 432.883 47.7886C432.883 47.7886 432.883 47.7886 432.883 47.7886C432.883 47.7886 432.883 47.7886 432.883 47.7886C432.883 47.7886 432.883 47.7886 432.883 47.7886C432.883 47.7886 432.883 47.7886 432.883 47.7886C432.883 47.7886 432.883 47.7886 432.883 47.7886C432.883 47.7886 432.883 47.7886 432.883 47.7886C432.883 47.7886 432.883 47.7886 432.883 47.7886C432.883 47.7886 432.883 47.7886 432.883 47.7886C432.883 47.7886 432.883 47.7886 432.883 47.7886C432.883 47.7886 432.883 47.7886 432.883 47.7886C432.883 47.7886 432.883 47.7886 432.883 47.7886C432.883 47.7886 432.883 47.7886 432.883 47.7886C432.883 47.7886 432.883 47.7886 432.883 47.7886C432.883 47.7886 432.883 47.7886 432.883 47.7886C432.883 47.7886 432.883 47.7886 432.883 47.7886C432.883 47.7886 432.883 47.7886 432.883 47.7886C432.883 47.7886 432.883 47.7886 432.883 47.7886C432.883 47.7886 432.883 47.7886 432.883 47.7886C432.883 47.7886 432.883 47.7886 432.883 47.7886C432.883 47.7886 432.883 47.7886 432.883 47.7886C432.883 47.7886 432.883 47.7886 432.883 47.7885C432.883 47.7885 432.883 47.7885 432.883 47.7885C432.883 47.7885 432.883 47.7885 432.883 47.7885C432.883 47.7885 432.883 47.7885 432.883 47.7885C432.883 47.7885 432.883 47.7885 432.883 47.7885C432.883 47.7885 432.883 47.7885 432.883 47.7885C432.883 47.7885 432.883 47.7885 432.883 47.7885C432.883 47.7885 432.883 47.7885 432.883 47.7885C432.883 47.7885 432.883 47.7885 432.883 47.7885C432.883 47.7885 432.883 47.7885 432.883 47.7885C432.883 47.7885 432.883 47.7885 432.883 47.7885C432.883 47.7885 432.883 47.7885 432.883 47.7885C432.883 47.7885 432.883 47.7885 432.883 47.7885C432.883 47.7885 432.883 47.7885 432.883 47.7885C432.883 47.7885 432.883 47.7885 432.883 47.7885C432.883 47.7885 432.883 47.7885 432.883 47.7885C432.883 47.7885 432.883 47.7885 432.883 47.7885C432.883 47.7885 432.883 47.7885 432.883 47.7885C432.883 47.7885 432.883 47.7885 432.883 47.7885C432.883 47.7885 432.883 47.7885 432.883 47.7885C432.883 47.7885 432.883 47.7885 432.883 47.7885C432.883 47.7885 432.883 47.7885 432.883 47.7885C432.883 47.7885 432.883 47.7885 432.883 47.7885C432.883 47.7885 432.883 47.7885 432.883 47.7885C432.883 47.7885 432.883 47.7885 432.883 47.7885C432.883 47.7885 432.883 47.7885 432.883 47.7885C432.883 47.7885 432.883 47.7885 432.883 47.7885C432.883 47.7885 432.883 47.7885 432.883 47.7885C432.883 47.7885 432.883 47.7885 432.883 47.7885C432.883 47.7885 432.883 47.7885 432.883 47.7885C432.883 47.7885 432.883 47.7885 432.883 47.7885C432.883 47.7885 432.883 47.7885 432.883 47.7885C432.883 47.7885 432.883 47.7885 432.883 47.7885C432.883 47.7885 432.883 47.7885 432.883 47.7885C432.883 47.7885 432.883 47.7885 432.883 47.7885C432.883 47.7885 432.883 47.7885 432.883 47.7885C432.883 47.7885 432.883 47.7885 432.883 47.7885C432.883 47.7885 432.883 47.7885 432.883 47.7885C432.883 47.7885 432.883 47.7885 432.883 47.7885C432.883 47.7885 432.883 47.7885 432.883 47.7885C432.883 47.7885 432.883 47.7885 432.883 47.7885C432.883 47.7885 432.883 47.7885 432.883 47.7885C432.883 47.7885 432.883 47.7885 432.883 47.7885C432.883 47.7885 432.883 47.7885 432.883 47.7885C432.883 47.7885 432.883 47.7885 432.883 47.7885C432.883 47.7885 432.883 47.7885 432.883 47.7885C432.883 47.7885 432.883 47.7885 432.883 47.7885C432.883 47.7885 432.883 47.7885 432.883 47.7885C432.883 47.7885 432.883 47.7885 432.883 47.7885C432.883 47.7885 432.883 47.7885 432.883 47.7885C432.883 47.7885 432.883 47.7885 432.883 47.7885C432.883 47.7885 432.883 47.7885 432.883 47.7885C432.883 47.7885 432.883 47.7885 432.883 47.7885C432.883 47.7885 432.883 47.7885 432.883 47.7885C432.883 47.7885 432.883 47.7885 432.883 47.7885C432.883 47.7885 432.883 47.7885 432.883 47.7885C432.883 47.7885 432.883 47.7885 432.883 47.7885C432.883 47.7885 432.883 47.7885 432.883 47.7885C432.883 47.7885 432.883 47.7885 432.883 47.7885C432.883 47.7885 432.883 47.7885 432.883 47.7885C432.883 47.7885 432.883 47.7885 432.883 47.7885C432.883 47.7885 432.883 47.7885 432.883 47.7885C432.883 47.7885 432.883 47.7885 432.883 47.7885C432.883 47.7885 432.883 47.7885 432.883 47.7885C432.883 47.7885 432.883 47.7885 432.883 47.7885C432.883 47.7885 432.883 47.7885 432.883 47.7885C432.883 47.7885 432.883 47.7885 432.883 47.7885C432.883 47.7885 432.883 47.7885 432.883 47.7885C432.883 47.7885 432.883 47.7885 432.883 47.7885C432.883 47.7885 432.883 47.7885 432.883 47.7885C432.883 47.7885 432.883 47.7885 432.883 47.7885C432.883 47.7885 432.883 47.7885 432.883 47.7885C432.883 47.7885 432.883 47.7885 432.883 47.7885C432.883 47.7885 432.883 47.7885 432.883 47.7885C432.883 47.7885 432.883 47.7885 432.883 47.7885C432.883 47.7885 432.883 47.7885 432.883 47.7885C432.883 47.7885 432.883 47.7885 432.883 47.7885C432.883 47.7885 432.883 47.7885 432.883 47.7885C432.883 47.7885 432.883 47.7885 432.883 47.7885C432.883 47.7885 432.883 47.7885 432.883 47.7885C432.883 47.7885 432.883 47.7885 432.883 47.7885C432.883 47.7885 432.883 47.7885 432.883 47.7885C432.883 47.7885 432.883 47.7885 432.883 47.7885C432.883 47.7885 432.883 47.7885 432.883 47.7885C432.883 47.7885 432.883 47.7885 432.883 47.7885C432.883 47.7885 432.883 47.7885 432.883 47.7885C432.883 47.7885 432.883 47.7885 432.883 47.7885C432.883 47.7885 432.883 47.7885 432.883 47.7885C432.883 47.7885 432.883 47.7885 432.883 47.7885C432.883 47.7885 432.883 47.7885 432.883 47.7885C432.883 47.7885 432.883 47.7885 432.883 47.7885C432.883 47.7885 432.883 47.7885 432.883 47.7885C432.883 47.7885 432.883 47.7885 432.883 47.7885C432.883 47.7885 432.883 47.7885 432.883 47.7885C432.883 47.7885 432.883 47.7885 432.883 47.7885C432.883 47.7885 432.883 47.7885 432.883 47.7885C432.883 47.7885 432.883 47.7885 432.883 47.7885C432.883 47.7885 432.883 47.7885 432.883 47.7885C432.883 47.7885 432.883 47.7885 432.883 47.7885C432.883 47.7885 432.883 47.7885 432.883 47.7885C432.883 47.7885 432.883 47.7885 432.883 47.7885C432.883 47.7885 432.883 47.7885 432.883 47.7885C432.883 47.7885 432.883 47.7885 432.883 47.7885C432.883 47.7885 432.883 47.7885 432.883 47.7885C432.883 47.7885 432.883 47.7885 432.883 47.7885C432.883 47.7885 432.883 47.7885 432.883 47.7885C432.883 47.7885 432.883 47.7885 432.883 47.7885C432.883 47.7885 432.883 47.7885 432.883 47.7885C432.883 47.7885 432.883 47.7885 432.883 47.7885C432.883 47.7885 432.883 47.7885 432.883 47.7885C432.883 47.7885 432.883 47.7885 432.883 47.7885C432.883 47.7885 432.883 47.7885 432.883 47.7885C432.883 47.7885 432.883 47.7885 432.883 47.7885C432.883 47.7885 432.883 47.7885 432.883 47.7885C432.883 47.7885 432.883 47.7885 432.883 47.7885C432.883 47.7885 432.883 47.7885 432.883 47.7885C432.883 47.7885 432.883 47.7885 432.883 47.7885C432.883 47.7885 432.883 47.7885 432.883 47.7885C432.883 47.7885 432.883 47.7885 432.883 47.7885C432.883 47.7885 432.883 47.7885 432.883 47.7885C432.883 47.7885 432.883 47.7885 432.883 47.7885C432.883 47.7885 432.883 47.7885 432.883 47.7885C432.883 47.7885 432.883 47.7885 432.883 47.7885C432.883 47.7885 432.883 47.7885 432.883 47.7885C432.883 47.7885 432.883 47.7885 432.883 47.7885C432.883 47.7885 432.883 47.7885 432.883 47.7885C432.883 47.7885 432.883 47.7885 432.883 47.7885C432.883 47.7885 432.883 47.7885 432.883 47.7885C432.883 47.7885 432.883 47.7885 432.883 47.7885C432.883 47.7885 432.883 47.7885 432.883 47.7885C432.883 47.7885 432.883 47.7885 432.883 47.7885C432.883 47.7885 432.883 47.7885 432.883 47.7885C432.883 47.7885 432.883 47.7885 432.883 47.7884C432.883 47.7884 432.883 47.7884 432.883 47.7884C432.883 47.7884 432.883 47.7884 432.883 47.7884C432.883 47.7884 432.883 47.7884 432.883 47.7884C432.883 47.7884 432.883 47.7884 432.883 47.7884C432.883 47.7884 432.883 47.7884 432.883 47.7884C432.883 47.7884 432.883 47.7884 432.883 47.7884C432.883 47.7884 432.883 47.7884 432.883 47.7884C432.883 47.7884 432.883 47.7884 432.883 47.7884C432.883 47.7884 432.883 47.7884 432.883 47.7884C432.883 47.7884 432.883 47.7884 432.883 47.7884C432.883 47.7884 432.883 47.7884 432.883 47.7884C432.883 47.7884 432.883 47.7884 432.883 47.7884C432.883 47.7884 432.883 47.7884 432.883 47.7884C432.883 47.7884 432.883 47.7884 432.883 47.7884C432.883 47.7884 432.883 47.7884 432.883 47.7884C432.883 47.7884 432.883 47.7884 432.883 47.7884C432.883 47.7884 432.883 47.7884 432.883 47.7884C432.883 47.7884 432.883 47.7884 432.883 47.7884C432.883 47.7884 432.883 47.7884 432.883 47.7884C432.883 47.7884 432.883 47.7884 432.883 47.7884C432.883 47.7884 432.883 47.7884 432.883 47.7884C432.883 47.7884 432.883 47.7884 432.883 47.7884C432.883 47.7884 432.883 47.7884 432.883 47.7884C432.883 47.7884 432.883 47.7884 432.883 47.7884C432.883 47.7884 432.883 47.7884 432.883 47.7884C432.883 47.7884 432.883 47.7884 432.883 47.7884C432.883 47.7884 432.883 47.7884 432.883 47.7884C432.883 47.7884 432.883 47.7884 432.883 47.7884C432.883 47.7884 432.883 47.7884 432.883 47.7884C432.883 47.7884 432.883 47.7884 432.883 47.7884C432.883 47.7884 432.883 47.7884 432.883 47.7884C432.883 47.7884 432.883 47.7884 432.883 47.7884C432.883 47.7884 432.883 47.7884 432.883 47.7884C432.883 47.7884 432.883 47.7884 432.883 47.7884C432.883 47.7884 413.995 22.6215 394.243 37.4451C394.243 37.4451 394.243 37.4451 394.243 37.4451C394.243 37.4451 394.243 37.4451 394.243 37.4451C394.243 37.4451 394.243 37.4451 394.243 37.4451C394.243 37.4451 394.243 37.4451 394.243 37.4451C394.243 37.4451 394.243 37.4451 394.243 37.4451C394.243 37.4451 394.243 37.4451 394.243 37.4451C394.243 37.4451 394.243 37.4451 394.243 37.4451C394.243 37.4451 394.243 37.4451 394.243 37.4451C394.243 37.4451 394.243 37.4452 394.243 37.4452C394.243 37.4452 394.243 37.4452 394.243 37.4452C394.243 37.4452 394.243 37.4452 394.243 37.4452C394.243 37.4452 394.243 37.4452 394.243 37.4452C394.243 37.4452 394.243 37.4452 394.243 37.4452C394.243 37.4452 394.243 37.4452 394.243 37.4452C394.243 37.4452 394.243 37.4452 394.243 37.4452C394.243 37.4452 394.243 37.4452 394.243 37.4452C394.243 37.4452 394.243 37.4452 394.243 37.4452C394.243 37.4452 394.243 37.4452 394.243 37.4452C394.243 37.4452 394.243 37.4452 394.243 37.4452C394.243 37.4452 394.243 37.4452 394.243 37.4452C394.243 37.4452 394.243 37.4452 394.243 37.4452C394.243 37.4452 394.243 37.4452 394.243 37.4452C394.243 37.4452 394.243 37.4452 394.243 37.4452C394.243 37.4452 394.243 37.4452 394.243 37.4452C394.243 37.4452 394.243 37.4452 394.243 37.4452C394.243 37.4452 394.243 37.4452 394.243 37.4452C394.243 37.4452 394.243 37.4452 394.243 37.4452C394.243 37.4452 394.243 37.4452 394.243 37.4452C394.243 37.4452 394.243 37.4452 394.243 37.4452C394.243 37.4452 394.243 37.4452 394.243 37.4452C394.243 37.4452 394.243 37.4452 394.243 37.4452C394.243 37.4452 394.243 37.4452 394.243 37.4452C394.243 37.4452 394.243 37.4452 394.243 37.4452C394.243 37.4452 394.243 37.4452 394.243 37.4452C394.243 37.4452 394.243 37.4452 394.243 37.4452C394.243 37.4452 394.243 37.4452 394.243 37.4452C394.243 37.4452 394.243 37.4452 394.243 37.4452C394.243 37.4452 394.243 37.4452 394.243 37.4452C394.243 37.4452 394.243 37.4452 394.243 37.4452C394.243 37.4452 394.243 37.4452 394.243 37.4452C394.243 37.4452 394.243 37.4452 394.243 37.4452C394.243 37.4452 394.243 37.4452 394.243 37.4452C394.243 37.4452 394.243 37.4452 394.243 37.4452C394.243 37.4452 394.243 37.4452 394.243 37.4452C394.243 37.4452 394.243 37.4452 394.243 37.4452C394.243 37.4452 394.243 37.4452 394.243 37.4452C394.243 37.4452 394.243 37.4452 394.243 37.4452C394.243 37.4452 394.243 37.4452 394.243 37.4452C394.243 37.4452 394.243 37.4452 394.243 37.4452C394.243 37.4452 394.243 37.4452 394.243 37.4452C394.243 37.4452 394.243 37.4452 394.243 37.4452C394.243 37.4452 394.243 37.4452 394.243 37.4452C394.243 37.4452 394.243 37.4452 394.243 37.4452C394.243 37.4452 394.243 37.4452 394.243 37.4452C394.243 37.4452 394.243 37.4452 394.243 37.4452C394.243 37.4452 394.243 37.4452 394.243 37.4452C394.243 37.4452 394.243 37.4452 394.243 37.4452C394.243 37.4452 394.243 37.4452 394.243 37.4452C394.243 37.4452 394.243 37.4452 394.243 37.4452C394.243 37.4452 394.243 37.4452 394.243 37.4452C394.243 37.4452 394.243 37.4452 394.243 37.4452C394.243 37.4452 394.243 37.4452 394.243 37.4452C394.243 37.4452 394.243 37.4452 394.243 37.4452C394.243 37.4452 394.243 37.4452 394.243 37.4452C394.243 37.4452 394.243 37.4452 394.243 37.4452C394.243 37.4452 394.243 37.4452 394.243 37.4452C394.243 37.4452 394.243 37.4452 394.243 37.4452C394.243 37.4452 394.243 37.4452 394.243 37.4452C394.243 37.4452 394.243 37.4452 394.243 37.4452C394.243 37.4452 394.243 37.4452 394.243 37.4452C394.243 37.4452 394.243 37.4452 394.243 37.4452C394.243 37.4452 394.243 37.4452 394.243 37.4452C394.243 37.4452 394.243 37.4452 394.243 37.4452C394.243 37.4452 394.243 37.4452 394.243 37.4452C394.243 37.4452 394.243 37.4452 394.243 37.4452C394.243 37.4452 394.243 37.4452 394.243 37.4452C394.243 37.4452 394.243 37.4452 394.243 37.4452C394.243 37.4452 394.243 37.4452 394.243 37.4452C394.243 37.4452 394.243 37.4452 394.243 37.4452C394.243 37.4452 394.243 37.4452 394.243 37.4452C394.243 37.4452 394.243 37.4452 394.243 37.4452C394.243 37.4452 394.243 37.4452 394.243 37.4452C394.243 37.4452 394.243 37.4452 394.243 37.4452C394.243 37.4452 394.243 37.4452 394.243 37.4452C394.243 37.4452 394.243 37.4452 394.243 37.4452C394.243 37.4452 394.243 37.4452 394.243 37.4452C394.243 37.4452 394.243 37.4452 394.243 37.4452C394.243 37.4452 394.243 37.4452 394.243 37.4452C394.243 37.4452 394.243 37.4452 394.243 37.4452C394.243 37.4452 394.243 37.4452 394.243 37.4452C394.243 37.4452 394.243 37.4452 394.243 37.4452C394.243 37.4452 394.243 37.4452 394.243 37.4452C394.243 37.4452 394.243 37.4452 394.243 37.4452C394.243 37.4452 394.243 37.4452 394.243 37.4452C394.243 37.4452 394.243 37.4452 394.243 37.4452C394.243 37.4452 394.243 37.4452 394.243 37.4452C394.243 37.4452 394.243 37.4452 394.243 37.4452C394.243 37.4452 394.243 37.4452 394.243 37.4452C394.243 37.4452 394.243 37.4452 394.243 37.4452C394.243 37.4452 394.243 37.4452 394.243 37.4452C394.243 37.4452 394.243 37.4452 394.243 37.4452C394.243 37.4452 394.243 37.4452 394.243 37.4452C394.243 37.4452 394.243 37.4452 394.243 37.4452C394.243 37.4452 394.243 37.4452 394.243 37.4452C394.243 37.4452 394.243 37.4452 394.243 37.4452C394.243 37.4452 394.243 37.4452 394.243 37.4452C394.243 37.4452 394.243 37.4452 394.243 37.4452C394.243 37.4452 394.243 37.4452 394.243 37.4452L432.883 47.7885C432.883 47.7885 432.883 47.7885 432.883 47.7885C432.883 47.7885 432.883 47.7885 432.883 47.7885C432.883 47.7885 432.883 47.7885 432.883 47.7885C432.883 47.7885 432.883 47.7885 432.883 47.7885C432.883 47.7885 432.883 47.7885 432.883 47.7885C432.883 47.7885 432.883 47.7885 432.883 47.7885C432.883 47.7885 432.883 47.7885 432.883 47.7885C432.883 47.7885 432.883 47.7885 432.883 47.7885C432.883 47.7885 432.883 47.7885 432.883 47.7885C432.883 47.7885 432.883 47.7885 432.883 47.7885C432.883 47.7885 432.883 47.7885 432.883 47.7885C432.883 47.7885 432.883 47.7885 432.883 47.7885C432.883 47.7885 432.883 47.7885 432.883 47.7885C432.883 47.7885 432.883 47.7885 432.883 47.7885C432.883 47.7885 432.883 47.7885 432.883 47.7885C432.883 47.7885 432.883 47.7885 432.883 47.7885C432.883 47.7885 432.883 47.7885 432.883 47.7885C432.883 47.7885 432.883 47.7885 432.883 47.7885C432.883 47.7885 432.883 47.7885 432.883 47.7885C432.883 47.7885 432.883 47.7885 432.883 47.7885C432.883 47.7885 432.883 47.7885 432.883 47.7885C432.883 47.7885 432.883 47.7885 432.883 47.7885C432.883 47.7885 432.883 47.7885 432.883 47.7885C432.883 47.7885 432.883 47.7885 432.883 47.7885C432.883 47.7885 432.883 47.7885 432.883 47.7885C432.883 47.7885 432.883 47.7885 432.883 47.7885C432.883 47.7885 432.883 47.7885 432.883 47.7885C432.883 47.7885 432.883 47.7885 432.883 47.7885C432.883 47.7885 432.883 47.7885 432.883 47.7885C432.883 47.7885 432.883 47.7885 432.883 47.7885C432.883 47.7885 432.883 47.7885 432.883 47.7885C432.883 47.7885 432.883 47.7885 432.883 47.7885C432.883 47.7885 432.883 47.7885 432.883 47.7885C432.883 47.7885 432.883 47.7885 432.883 47.7885C432.883 47.7885 432.883 47.7885 432.883 47.7885C432.883 47.7885 432.883 47.7885 432.883 47.7885C432.883 47.7885 432.883 47.7885 432.883 47.7885C432.883 47.7885 432.883 47.7885 432.883 47.7885C432.883 47.7885 432.883 47.7885 432.883 47.7885C432.883 47.7885 432.883 47.7885 432.883 47.7885C432.883 47.7885 432.883 47.7885 432.883 47.7885C432.883 47.7885 432.883 47.7885 432.883 47.7885C432.883 47.7885 432.883 47.7885 432.883 47.7885C432.883 47.7885 432.883 47.7885 432.883 47.7885C432.883 47.7885 432.883 47.7885 432.883 47.7885C432.883 47.7885 432.883 47.7885 432.883 47.7885C432.883 47.7885 432.883 47.7885 432.883 47.7885C432.883 47.7885 432.883 47.7885 432.883 47.7885C432.883 47.7885 432.883 47.7885 432.883 47.7885C432.883 47.7885 432.883 47.7885 432.883 47.7885C432.883 47.7885 432.883 47.7885 432.883 47.7885C432.883 47.7885 432.883 47.7885 432.883 47.7885C432.883 47.7885 432.883 47.7885 432.883 47.7885C432.883 47.7885 432.883 47.7885 432.883 47.7885C432.883 47.7885 432.883 47.7885 432.883 47.7885C432.883 47.7885 432.883 47.7885 432.883 47.7885C432.883 47.7885 432.883 47.7885 432.883 47.7885C432.883 47.7885 432.883 47.7885 432.883 47.7885C432.883 47.7885 432.883 47.7885 432.883 47.7885C432.883 47.7885 432.883 47.7885 432.883 47.7885C432.883 47.7885 432.883 47.7885 432.883 47.7885C432.883 47.7885 432.883 47.7885 432.883 47.7885C432.883 47.7885 432.883 47.7885 432.883 47.7885C432.883 47.7885 432.883 47.7885 432.883 47.7885C432.883 47.7885 432.883 47.7885 432.883 47.7885C432.883 47.7885 432.883 47.7885 432.883 47.7885C432.883 47.7885 432.883 47.7885 432.883 47.7885C432.883 47.7885 432.883 47.7885 432.883 47.7885C432.883 47.7885 432.883 47.7885 432.883 47.7885C432.883 47.7885 432.883 47.7885 432.883 47.7885C432.883 47.7885 432.883 47.7885 432.883 47.7885C432.883 47.7885 432.883 47.7885 432.883 47.7885C432.883 47.7885 432.883 47.7885 432.883 47.7885C432.883 47.7885 432.883 47.7885 432.883 47.7885C432.883 47.7885 432.883 47.7885 432.883 47.7885C432.883 47.7885 432.883 47.7885 432.883 47.7884C432.883 47.7884 432.883 47.7884 432.883 47.7884C432.883 47.7884 432.883 47.7884 432.883 47.7884C432.883 47.7884 432.883 47.7884 432.883 47.7884C432.883 47.7884 432.883 47.7884 432.883 47.7884C432.883 47.7884 432.883 47.7884 432.883 47.7884C432.883 47.7884 432.883 47.7884 432.883 47.7884C432.883 47.7884 432.883 47.7884 432.883 47.7884C432.883 47.7884 432.883 47.7884 432.883 47.7884C432.883 47.7884 432.883 47.7884 432.883 47.7884C432.883 47.7884 432.883 47.7884 432.883 47.7884C432.883 47.7884 432.883 47.7884 432.883 47.7884C432.883 47.7884 432.883 47.7884 432.883 47.7884C432.883 47.7884 432.883 47.7884 432.883 47.7884C432.883 47.7884 432.883 47.7884 432.883 47.7884C432.883 47.7884 432.883 47.7884 432.883 47.7884C432.883 47.7884 432.883 47.7884 432.883 47.7884C432.883 47.7884 432.883 47.7884 432.883 47.7884C432.883 47.7884 432.883 47.7884 432.883 47.7884C432.883 47.7884 432.883 47.7884 432.883 47.7884C432.883 47.7884 432.883 47.7884 432.883 47.7884C432.883 47.7884 432.883 47.7884 432.883 47.7884C432.883 47.7884 432.883 47.7884 432.883 47.7884C432.883 47.7884 432.883 47.7884 432.883 47.7884C432.883 47.7884 432.883 47.7884 432.883 47.7884C432.883 47.7884 432.883 47.7884 432.883 47.7884C432.883 47.7884 432.883 47.7884 432.883 47.7884C432.883 47.7884 432.883 47.7884 432.883 47.7884C432.883 47.7884 432.883 47.7884 432.883 47.7884C432.883 47.7884 432.883 47.7884 432.883 47.7884C432.883 47.7884 432.883 47.7884 432.883 47.7884C432.883 47.7884 432.883 47.7884 432.883 47.7884C432.883 47.7884 432.883 47.7884 432.883 47.7884C413.13 62.6121 394.243 37.4451 394.243 37.4451C394.243 37.4451 394.243 37.4451 394.243 37.4451C394.243 37.4451 394.243 37.4451 394.243 37.4451C394.243 37.4451 394.243 37.4451 394.243 37.4451C394.243 37.4451 394.243 37.4451 394.243 37.4451C394.243 37.4451 394.243 37.4451 394.243 37.4451C394.243 37.4451 394.243 37.4451 394.243 37.4451C394.243 37.4451 394.243 37.4451 394.243 37.4451C394.243 37.4451 394.243 37.4451 394.243 37.4452C394.243 37.4452 394.243 37.4452 394.243 37.4452C394.243 37.4452 394.243 37.4452 394.243 37.4452C394.243 37.4452 394.243 37.4452 394.243 37.4452C394.243 37.4452 394.243 37.4452 394.243 37.4452C394.243 37.4452 394.243 37.4452 394.243 37.4452C394.243 37.4452 394.243 37.4452 394.243 37.4452C394.243 37.4452 394.243 37.4452 394.243 37.4452C394.243 37.4452 394.243 37.4452 394.243 37.4452C394.243 37.4452 394.243 37.4452 394.243 37.4452C394.243 37.4452 394.243 37.4452 394.243 37.4452C394.243 37.4452 394.243 37.4452 394.243 37.4452C394.243 37.4452 394.243 37.4452 394.243 37.4452C394.243 37.4452 394.243 37.4452 394.243 37.4452C394.243 37.4452 394.243 37.4452 394.243 37.4452C394.243 37.4452 394.243 37.4452 394.243 37.4452C394.243 37.4452 394.243 37.4452 394.243 37.4452C394.243 37.4452 394.243 37.4452 394.243 37.4452C394.243 37.4452 394.243 37.4452 394.243 37.4452C394.243 37.4452 394.243 37.4452 394.243 37.4452C394.243 37.4452 394.243 37.4452 394.243 37.4452C394.243 37.4452 394.243 37.4452 394.243 37.4452C394.243 37.4452 394.243 37.4452 394.243 37.4452C394.243 37.4452 394.243 37.4452 394.243 37.4452C394.243 37.4452 394.243 37.4452 394.243 37.4452C394.243 37.4452 394.243 37.4452 394.243 37.4452C394.243 37.4452 394.243 37.4452 394.243 37.4452C394.243 37.4452 394.243 37.4452 394.243 37.4452C394.243 37.4452 394.243 37.4452 394.243 37.4452C394.243 37.4452 394.243 37.4452 394.243 37.4452C394.243 37.4452 394.243 37.4452 394.243 37.4452C394.243 37.4452 394.243 37.4452 394.243 37.4452C394.243 37.4452 394.243 37.4452 394.243 37.4452C394.243 37.4452 394.243 37.4452 394.243 37.4452C394.243 37.4452 394.243 37.4452 394.243 37.4452C394.243 37.4452 394.243 37.4452 394.243 37.4452C394.243 37.4452 394.243 37.4452 394.243 37.4452C394.243 37.4452 394.243 37.4452 394.243 37.4452C394.243 37.4452 394.243 37.4452 394.243 37.4452C394.243 37.4452 394.243 37.4452 394.243 37.4452C394.243 37.4452 394.243 37.4452 394.243 37.4452C394.243 37.4452 394.243 37.4452 394.243 37.4452C394.243 37.4452 394.243 37.4452 394.243 37.4452C394.243 37.4452 394.243 37.4452 394.243 37.4452C394.243 37.4452 394.243 37.4452 394.243 37.4452C394.243 37.4452 394.243 37.4452 394.243 37.4452C394.243 37.4452 394.243 37.4452 394.243 37.4452C394.243 37.4452 394.243 37.4452 394.243 37.4452C394.243 37.4452 394.243 37.4452 394.243 37.4452C394.243 37.4452 394.243 37.4452 394.243 37.4452C394.243 37.4452 394.243 37.4452 394.243 37.4452C394.243 37.4452 394.243 37.4452 394.243 37.4452C394.243 37.4452 394.243 37.4452 394.243 37.4452C394.243 37.4452 394.243 37.4452 394.243 37.4452C394.243 37.4452 394.243 37.4452 394.243 37.4452C394.243 37.4452 394.243 37.4452 394.243 37.4452C394.243 37.4452 394.243 37.4452 394.243 37.4452C394.243 37.4452 394.243 37.4452 394.243 37.4452C394.243 37.4452 394.243 37.4452 394.243 37.4452C394.243 37.4452 394.243 37.4452 394.243 37.4452C394.243 37.4452 394.243 37.4452 394.243 37.4452C394.243 37.4452 394.243 37.4452 394.243 37.4452C394.243 37.4452 394.243 37.4452 394.243 37.4452C394.243 37.4452 394.243 37.4452 394.243 37.4452C394.243 37.4452 394.243 37.4452 394.243 37.4452C394.243 37.4452 394.243 37.4452 394.243 37.4452C394.243 37.4452 394.243 37.4452 394.243 37.4452C394.243 37.4452 394.243 37.4452 394.243 37.4452C394.243 37.4452 394.243 37.4452 394.243 37.4452C394.243 37.4452 394.243 37.4452 394.243 37.4452C394.243 37.4452 394.243 37.4452 394.243 37.4452C394.243 37.4452 394.243 37.4452 394.243 37.4452C394.243 37.4452 394.243 37.4452 394.243 37.4452C394.243 37.4452 394.243 37.4452 394.243 37.4452C394.243 37.4452 394.243 37.4452 394.243 37.4452C394.243 37.4452 394.243 37.4452 394.243 37.4452C394.243 37.4452 394.243 37.4452 394.243 37.4452C394.243 37.4452 394.243 37.4452 394.243 37.4452C394.243 37.4452 394.243 37.4452 394.243 37.4452C394.243 37.4452 394.243 37.4452 394.243 37.4452C394.243 37.4452 394.243 37.4452 394.243 37.4452C394.243 37.4452 394.243 37.4452 394.243 37.4452C394.243 37.4452 394.243 37.4452 394.243 37.4452C394.243 37.4452 394.243 37.4452 394.243 37.4452C394.243 37.4452 394.243 37.4452 394.243 37.4452C394.243 37.4452 394.243 37.4452 394.243 37.4452C394.243 37.4452 394.243 37.4452 394.243 37.4452C394.243 37.4452 394.243 37.4452 394.243 37.4452C394.243 37.4452 394.243 37.4452 394.243 37.4452C394.243 37.4452 394.243 37.4452 394.243 37.4452C394.243 37.4452 394.243 37.4452 394.243 37.4452C394.243 37.4452 394.243 37.4452 394.243 37.4452C394.243 37.4452 394.243 37.4452 394.243 37.4452C394.243 37.4452 394.243 37.4452 394.243 37.4452C394.243 37.4452 394.243 37.4452 394.243 37.4452C394.243 37.4452 394.243 37.4452 394.243 37.4452C394.243 37.4452 394.243 37.4452 394.243 37.4452C394.243 37.4452 394.243 37.4452 394.243 37.4452C394.243 37.4452 394.243 37.4452 394.243 37.4452C394.243 37.4452 394.243 37.4452 394.243 37.4452C394.243 37.4452 394.243 37.4452 394.243 37.4452C394.243 37.4452 394.243 37.4452 394.243 37.4452C394.243 37.4452 394.243 37.4452 394.243 37.4452C394.243 37.4452 394.243 37.4452 394.243 37.4452C394.243 37.4452 394.243 37.4452 394.243 37.4452C394.243 37.4452 394.243 37.4452 394.243 37.4452C394.243 37.4452 394.243 37.4452 394.243 37.4452C394.243 37.4452 394.243 37.4452 394.243 37.4452C394.243 37.4452 394.243 37.4452 394.243 37.4452C394.243 37.4452 394.243 37.4452 394.243 37.4452C394.243 37.4452 394.243 37.4452 394.243 37.4452C394.243 37.4452 394.243 37.4452 394.243 37.4452C394.243 37.4452 394.243 37.4452 394.243 37.4452C394.243 37.4452 394.243 37.4452 394.243 37.4452C394.243 37.4452 394.243 37.4452 394.243 37.4452C394.243 37.4452 394.243 37.4452 394.243 37.4452C394.243 37.4452 394.243 37.4452 394.243 37.4452C394.243 37.4452 394.243 37.4452 394.243 37.4452C394.243 37.4452 394.243 37.4452 394.243 37.4452C394.243 37.4452 394.243 37.4452 394.243 37.4452C394.243 37.4452 394.243 37.4452 394.243 37.4452C394.243 37.4452 394.243 37.4452 394.243 37.4452C394.243 37.4452 394.243 37.4452 394.243 37.4452C394.243 37.4452 394.243 37.4452 394.243 37.4452C394.243 37.4452 394.243 37.4452 394.243 37.4452C394.243 37.4452 394.243 37.4452 394.243 37.4452C394.243 37.4452 394.243 37.4452 394.243 37.4452C394.243 37.4452 394.243 37.4452 394.243 37.4452C394.243 37.4452 394.243 37.4452 394.243 37.4452C394.243 37.4452 394.243 37.4452 394.243 37.4452C394.243 37.4452 394.243 37.4452 394.243 37.4452C394.243 37.4452 394.243 37.4452 394.243 37.4452C394.243 37.4452 394.243 37.4452 394.243 37.4452C394.243 37.4452 394.243 37.4452 394.243 37.4452C394.243 37.4452 394.243 37.4452 394.243 37.4452C394.243 37.4452 394.243 37.4452 394.243 37.4452C394.243 37.4452 394.243 37.4452 394.243 37.4452C394.243 37.4452 394.243 37.4452 394.243 37.4452C394.243 37.4452 394.243 37.4452 394.243 37.4452C394.243 37.4452 394.243 37.4452 394.243 37.4452C394.243 37.4452 394.243 37.4452 394.243 37.4452C394.243 37.4452 394.243 37.4452 394.243 37.4452C394.243 37.4452 394.243 37.4452 394.243 37.4452C394.243 37.4452 394.243 37.4452 394.243 37.4452C394.243 37.4452 394.243 37.4452 394.243 37.4452C394.243 37.4452 394.243 37.4452 394.243 37.4452C394.243 37.4452 394.243 37.4452 394.243 37.4452C394.243 37.4452 394.243 37.4452 394.243 37.4452C394.243 37.4452 394.243 37.4452 394.243 37.4452C394.243 37.4452 394.243 37.4452 394.243 37.4452C394.243 37.4452 394.243 37.4452 394.243 37.4452C394.243 37.4452 394.243 37.4452 394.243 37.4452C394.243 37.4453 394.243 37.4453 394.243 37.4453C394.243 37.4453 394.243 37.4453 394.243 37.4453C394.243 37.4453 394.243 37.4453 394.243 37.4453C394.243 37.4453 394.243 37.4453 394.243 37.4453C394.243 37.4453 394.243 37.4453 394.243 37.4453C394.243 37.4453 394.243 37.4453 394.243 37.4453C394.243 37.4453 394.243 37.4453 394.243 37.4453C394.243 37.4453 394.243 37.4453 394.243 37.4453C394.243 37.4453 394.243 37.4453 394.243 37.4453C394.243 37.4453 394.243 37.4453 394.243 37.4453C394.243 37.4453 394.243 37.4453 394.243 37.4453C394.243 37.4453 394.243 37.4453 394.243 37.4453C394.243 37.4453 394.243 37.4453 394.243 37.4453C394.243 37.4453 394.243 37.4453 394.243 37.4453C394.243 37.4453 394.243 37.4453 394.243 37.4453C394.243 37.4453 394.243 37.4453 394.243 37.4453C394.243 37.4453 394.243 37.4453 394.243 37.4453C394.243 37.4453 394.243 37.4453 394.243 37.4453C394.243 37.4453 394.243 37.4453 394.243 37.4453C394.243 37.4453 394.243 37.4453 394.243 37.4453C394.243 37.4453 394.243 37.4453 394.243 37.4453C394.243 37.4453 394.243 37.4453 394.243 37.4453C394.243 37.4453 394.243 37.4453 394.243 37.4453C394.243 37.4453 394.243 37.4453 394.243 37.4453C394.243 37.4453 394.243 37.4453 394.243 37.4453C394.243 37.4453 394.243 37.4453 394.243 37.4453C394.243 37.4453 394.243 37.4453 394.243 37.4453C394.243 37.4453 394.243 37.4453 394.243 37.4453C394.243 37.4453 394.243 37.4453 394.243 37.4453C394.243 37.4453 394.243 37.4453 394.243 37.4453C394.243 37.4453 394.243 37.4453 394.243 37.4453C394.243 37.4453 394.243 37.4453 394.243 37.4453C394.243 37.4453 394.243 37.4453 394.243 37.4453C394.243 37.4453 394.243 37.4453 394.243 37.4453C394.243 37.4453 394.243 37.4453 394.243 37.4453C394.243 37.4453 394.243 37.4453 394.243 37.4453C394.243 37.4453 394.243 37.4453 394.243 37.4453C394.243 37.4453 394.243 37.4453 394.243 37.4453C394.243 37.4453 394.243 37.4453 394.243 37.4453C394.243 37.4453 394.243 37.4453 394.243 37.4453C394.243 37.4453 394.243 37.4453 394.243 37.4453C394.243 37.4453 394.243 37.4453 394.243 37.4453C394.243 37.4453 394.243 37.4453 394.243 37.4453C394.243 37.4453 394.243 37.4453 394.243 37.4453C394.243 37.4453 394.243 37.4453 394.243 37.4453C394.243 37.4453 394.243 37.4453 394.243 37.4453C394.243 37.4453 394.243 37.4453 394.243 37.4453C394.243 37.4453 394.243 37.4453 394.243 37.4453C394.243 37.4453 394.243 37.4453 394.243 37.4453C394.243 37.4453 394.243 37.4453 394.243 37.4453C394.243 37.4453 394.243 37.4453 394.243 37.4453C394.243 37.4453 394.243 37.4453 394.243 37.4453C394.243 37.4453 394.243 37.4453 394.243 37.4453C394.243 37.4453 394.243 37.4453 394.243 37.4453C394.243 37.4453 394.243 37.4453 394.243 37.4453C394.243 37.4453 394.243 37.4453 394.243 37.4453C394.243 37.4453 394.243 37.4453 394.243 37.4453C394.243 37.4453 394.243 37.4453 394.243 37.4453C394.243 37.4453 394.243 37.4453 394.243 37.4453C394.243 37.4453 394.243 37.4453 394.243 37.4453C394.243 37.4453 394.243 37.4453 394.243 37.4453C394.243 37.4453 394.243 37.4453 394.243 37.4453C394.243 37.4453 394.243 37.4453 394.243 37.4453C394.243 37.4453 394.243 37.4453 394.243 37.4453C394.243 37.4453 394.243 37.4453 394.243 37.4453C394.243 37.4453 394.243 37.4453 394.243 37.4453C394.243 37.4453 394.243 37.4453 394.243 37.4453C394.243 37.4453 394.243 37.4453 394.243 37.4453C394.243 37.4453 394.243 37.4453 394.243 37.4453C394.243 37.4453 394.243 37.4453 394.243 37.4453C394.243 37.4453 394.243 37.4453 394.243 37.4453C394.243 37.4453 394.243 37.4453 394.243 37.4453C394.243 37.4453 394.243 37.4453 394.243 37.4453C394.243 37.4453 394.243 37.4453 394.243 37.4453C394.243 37.4453 394.243 37.4453 394.243 37.4453C394.243 37.4453 394.243 37.4453 394.243 37.4453C394.243 37.4453 394.243 37.4453 394.243 37.4453C394.243 37.4453 394.243 37.4453 394.243 37.4453C394.243 37.4453 394.243 37.4453 394.243 37.4453C394.243 37.4453 394.243 37.4453 394.243 37.4453C394.243 37.4453 394.243 37.4453 394.243 37.4453C394.243 37.4453 394.243 37.4453 394.243 37.4453C394.243 37.4453 394.243 37.4453 394.243 37.4453C394.243 37.4453 394.243 37.4453 394.243 37.4453C394.243 37.4453 394.243 37.4453 394.243 37.4453C394.243 37.4453 394.243 37.4453 394.243 37.4453C394.243 37.4453 394.243 37.4453 394.243 37.4453C394.243 37.4453 394.243 37.4453 394.243 37.4453C394.243 37.4453 394.243 37.4453 394.243 37.4453C394.243 37.4453 394.243 37.4453 394.243 37.4453C394.243 37.4453 394.243 37.4453 394.243 37.4453C394.243 37.4453 394.243 37.4453 394.243 37.4453C394.243 37.4453 394.243 37.4453 394.243 37.4453C394.243 37.4453 394.243 37.4453 394.243 37.4453C394.243 37.4453 394.243 37.4453 394.243 37.4453C394.243 37.4453 394.243 37.4453 394.243 37.4453C394.243 37.4453 394.243 37.4453 394.243 37.4453C394.243 37.4453 394.243 37.4453 394.243 37.4453C394.243 37.4453 394.243 37.4453 394.243 37.4453C394.243 37.4453 394.243 37.4453 394.243 37.4453C394.243 37.4453 394.243 37.4453 394.243 37.4453C394.243 37.4453 394.243 37.4453 394.243 37.4453C394.243 37.4453 394.243 37.4453 394.243 37.4453C394.243 37.4453 394.243 37.4453 394.243 37.4453C394.243 37.4453 394.243 37.4453 394.243 37.4453C394.243 37.4453 394.243 37.4453 394.243 37.4453C394.243 37.4453 394.243 37.4453 394.243 37.4453C394.243 37.4453 394.243 37.4453 394.243 37.4453C394.243 37.4453 394.243 37.4453 394.243 37.4453C394.243 37.4453 394.243 37.4453 394.243 37.4453C394.243 37.4453 394.243 37.4453 394.243 37.4453C394.243 37.4453 394.243 37.4453 394.243 37.4453C394.243 37.4453 394.243 37.4453 394.243 37.4453C394.243 37.4453 394.243 37.4453 394.243 37.4453C394.243 37.4453 394.243 37.4453 394.243 37.4453C394.243 37.4453 394.243 37.4453 394.243 37.4453C394.243 37.4453 394.243 37.4453 394.243 37.4453C394.243 37.4453 394.243 37.4453 394.243 37.4453C394.243 37.4453 394.243 37.4453 394.243 37.4453C394.243 37.4453 394.243 37.4453 394.243 37.4453C394.243 37.4453 394.243 37.4453 394.243 37.4453C394.243 37.4453 394.243 37.4453 394.243 37.4453C394.243 37.4453 394.243 37.4453 394.243 37.4453C394.243 37.4453 394.243 37.4453 394.243 37.4453C394.243 37.4453 394.243 37.4453 394.243 37.4453C394.243 37.4453 394.243 37.4453 394.243 37.4453C394.243 37.4453 394.243 37.4453 394.243 37.4453C394.243 37.4453 394.243 37.4453 394.243 37.4453C394.243 37.4453 394.243 37.4453 394.243 37.4453C394.243 37.4453 394.243 37.4453 394.243 37.4453C394.243 37.4453 394.243 37.4453 394.243 37.4453C394.243 37.4453 394.243 37.4453 394.243 37.4453C394.243 37.4453 394.243 37.4453 394.243 37.4453C394.243 37.4453 394.243 37.4453 394.243 37.4453C394.243 37.4453 394.243 37.4453 394.243 37.4453C394.243 37.4453 413.13 62.6123 432.883 47.7886C432.883 47.7886 432.883 47.7886 432.883 47.7886C432.883 47.7886 432.883 47.7886 432.883 47.7886C432.883 47.7886 432.883 47.7886 432.883 47.7886C432.883 47.7886 432.883 47.7886 432.883 47.7886C432.883 47.7886 432.883 47.7886 432.883 47.7886C432.883 47.7886 432.883 47.7886 432.883 47.7886C432.883 47.7886 432.883 47.7886 432.883 47.7886C432.883 47.7886 432.883 47.7886 432.883 47.7886C432.883 47.7886 432.883 47.7886 432.883 47.7886C432.883 47.7886 432.883 47.7886 432.883 47.7886C432.883 47.7886 432.883 47.7886 432.883 47.7886C432.883 47.7886 432.883 47.7886 432.883 47.7886C432.883 47.7886 432.883 47.7886 432.883 47.7886C432.883 47.7886 432.883 47.7886 432.883 47.7886C432.883 47.7886 432.883 47.7886 432.883 47.7886C432.883 47.7886 432.883 47.7886 432.883 47.7886C432.883 47.7886 432.883 47.7886 432.883 47.7886C432.883 47.7886 432.883 47.7886 432.883 47.7886C432.883 47.7886 432.883 47.7886 432.883 47.7886C432.883 47.7886 432.883 47.7886 432.883 47.7886C432.883 47.7886 432.883 47.7886 432.883 47.7886C432.883 47.7886 432.883 47.7886 432.883 47.7886C432.883 47.7886 432.883 47.7886 432.883 47.7886C432.883 47.7886 432.883 47.7886 432.883 47.7886C432.883 47.7886 432.883 47.7886 432.883 47.7886C432.883 47.7886 432.883 47.7886 432.883 47.7886C432.883 47.7886 432.883 47.7886 432.883 47.7886C432.883 47.7886 432.883 47.7886 432.883 47.7886C432.883 47.7886 432.883 47.7886 432.883 47.7886C432.883 47.7886 432.883 47.7886 432.883 47.7886C432.883 47.7886 432.883 47.7886 432.883 47.7886C432.883 47.7886 432.883 47.7886 432.883 47.7886C432.883 47.7886 432.883 47.7886 432.883 47.7886C432.883 47.7886 432.883 47.7886 432.883 47.7886C432.883 47.7886 432.883 47.7886 432.883 47.7886C432.883 47.7886 432.883 47.7886 432.883 47.7886C432.883 47.7886 432.883 47.7886 432.883 47.7886C432.883 47.7886 432.883 47.7886 432.883 47.7886C432.883 47.7886 432.883 47.7886 432.883 47.7886C432.883 47.7886 432.883 47.7886 432.883 47.7886C432.883 47.7886 432.883 47.7886 432.883 47.7886C432.883 47.7886 432.883 47.7886 432.883 47.7886C432.883 47.7886 432.883 47.7886 432.883 47.7886C432.883 47.7886 432.883 47.7886 432.883 47.7886C432.883 47.7886 432.883 47.7886 432.883 47.7886C432.883 47.7886 432.883 47.7886 432.883 47.7886C432.883 47.7886 432.883 47.7886 432.883 47.7886C432.883 47.7886 432.883 47.7886 432.883 47.7886C432.883 47.7886 432.883 47.7886 432.883 47.7886C432.883 47.7886 432.883 47.7886 432.883 47.7886C432.883 47.7886 432.883 47.7886 432.883 47.7886C432.883 47.7886 432.883 47.7886 432.883 47.7886C432.883 47.7886 432.883 47.7886 432.883 47.7886C432.883 47.7886 432.883 47.7886 432.883 47.7886C432.883 47.7886 432.883 47.7886 432.883 47.7886C432.883 47.7886 432.883 47.7886 432.883 47.7886C432.883 47.7886 432.883 47.7886 432.883 47.7886C432.883 47.7886 432.883 47.7886 432.883 47.7886C432.883 47.7886 432.883 47.7886 432.883 47.7886C432.883 47.7886 432.883 47.7886 432.883 47.7886C432.883 47.7886 432.883 47.7886 432.883 47.7886C432.883 47.7886 432.883 47.7886 432.883 47.7886C432.883 47.7886 432.883 47.7886 432.883 47.7886C432.883 47.7886 432.883 47.7886 432.883 47.7886C432.883 47.7886 432.883 47.7886 432.883 47.7886C432.883 47.7886 432.883 47.7886 432.883 47.7886C432.883 47.7886 432.883 47.7886 432.883 47.7886C432.883 47.7886 432.883 47.7886 432.883 47.7886C432.883 47.7886 432.883 47.7886 432.883 47.7886C432.883 47.7886 432.883 47.7886 432.883 47.7886C432.883 47.7886 432.883 47.7886 432.883 47.7886C432.883 47.7886 432.883 47.7886 432.883 47.7886C432.883 47.7886 432.883 47.7886 432.883 47.7886C432.883 47.7886 432.883 47.7886 432.883 47.7886C432.883 47.7886 432.883 47.7886 432.883 47.7886C432.883 47.7886 432.883 47.7886 432.883 47.7886C432.883 47.7886 432.883 47.7886 432.883 47.7886C432.883 47.7886 432.883 47.7886 432.883 47.7886C432.883 47.7886 432.883 47.7886 432.883 47.7886C432.883 47.7886 432.883 47.7886 432.883 47.7886C432.883 47.7886 432.883 47.7886 432.883 47.7886C432.883 47.7886 432.883 47.7886 432.883 47.7886C432.883 47.7886 432.883 47.7886 432.883 47.7886C432.883 47.7886 432.883 47.7886 432.883 47.7886C432.883 47.7886 432.883 47.7886 432.883 47.7886C432.883 47.7886 432.883 47.7886 432.883 47.7886C432.883 47.7886 432.883 47.7886 432.883 47.7886C432.883 47.7886 432.883 47.7886 432.883 47.7886C432.883 47.7886 432.883 47.7886 432.883 47.7886C432.883 47.7886 432.883 47.7886 432.883 47.7886C432.883 47.7886 432.883 47.7886 432.883 47.7886C432.883 47.7886 432.883 47.7886 432.883 47.7886C432.883 47.7886 432.883 47.7886 432.883 47.7886C432.883 47.7886 432.883 47.7886 432.883 47.7886C432.883 47.7886 432.883 47.7886 432.883 47.7886C432.883 47.7886 432.883 47.7886 432.883 47.7886C432.883 47.7886 432.883 47.7886 432.883 47.7886C432.883 47.7886 432.883 47.7886 432.883 47.7885C432.883 47.7885 432.883 47.7885 432.883 47.7885C432.883 47.7885 432.883 47.7885 432.883 47.7885C432.883 47.7885 432.883 47.7885 432.883 47.7885C432.883 47.7885 432.883 47.7885 432.883 47.7885C432.883 47.7885 432.883 47.7885 432.883 47.7885C432.883 47.7885 432.883 47.7885 432.883 47.7885C432.883 47.7885 432.883 47.7885 432.883 47.7885C432.883 47.7885 432.883 47.7885 432.883 47.7885C432.883 47.7885 432.883 47.7885 432.883 47.7885C432.883 47.7885 432.883 47.7885 432.883 47.7885L394.243 37.4452Z" fill="white" mask="url(#path-2-outside-1_128_352)"/>
<path d="M421.368 158.173L426.25 153.157C435.349 162.014 441.935 173.288 441.65 186.462C441.525 192.241 440.075 197.67 437.654 202.652L403.954 460.423C403.384 471.382 396.534 479.707 389.04 485.454C381.213 491.457 370.799 496.195 359.178 499.858C335.8 507.227 304.504 511.182 270.672 510.451C236.84 509.719 205.745 504.415 182.707 496.042C171.255 491.88 161.056 486.697 153.495 480.361M421.368 158.173L153.495 480.361M421.368 158.173L426.25 153.157C417.168 144.315 404.645 136.88 390.232 130.833C361.325 118.706 322.117 111.041 279.328 110.116C236.539 109.19 197.036 115.154 167.633 126.02C152.971 131.438 140.139 138.325 130.683 146.766M421.368 158.173L130.683 146.766M153.495 480.361C146.232 474.275 139.729 465.622 139.677 454.596M153.495 480.361L139.677 454.596M139.677 454.596L121.465 203.496C116.662 196.448 113.664 188.323 113.858 179.374C114.143 166.201 121.21 155.222 130.683 146.766M139.677 454.596L130.683 146.766M414.657 185.878C414.597 188.641 413.362 192.23 409.241 196.604C407.011 198.605 403.58 201.58 400.191 204.308C398.35 205.789 396.669 207.077 395.28 208.067C394.587 208.561 394.013 208.948 393.561 209.234C393.16 209.486 392.957 209.595 392.919 209.615C392.91 209.619 392.91 209.62 392.916 209.617C391.378 210.345 390.042 211.325 388.932 212.486C390.448 208.987 390.479 204.871 388.671 201.178L379.69 205.575L388.671 201.178C385.392 194.482 377.306 191.711 370.61 194.99C351.9 204.151 317.643 210.535 277.176 209.66C245.477 208.975 217.44 203.989 197.849 196.869C187.985 193.285 180.995 189.421 176.756 185.869C174.652 184.106 173.571 182.714 173.047 181.8C172.794 181.358 172.685 181.053 172.639 180.884C172.594 180.721 172.597 180.65 172.597 180.644C172.597 180.639 172.597 180.567 172.649 180.407C172.703 180.24 172.825 179.94 173.097 179.509C173.659 178.618 174.8 177.274 176.978 175.604C181.367 172.238 188.517 168.681 198.526 165.526C218.407 159.26 246.633 155.49 278.332 156.176C310.031 156.861 338.068 161.847 357.659 168.967C367.522 172.551 374.512 176.414 378.752 179.966C380.856 181.73 381.937 183.121 382.46 184.035C382.714 184.478 382.822 184.783 382.869 184.952C382.914 185.115 382.911 185.186 382.911 185.192C382.75 192.646 388.662 198.819 396.116 198.98C403.57 199.142 409.744 193.229 409.905 185.775C410.019 180.496 408.651 175.747 406.409 171.552C406.755 171.87 407.091 172.187 407.416 172.503C413.223 178.156 414.726 182.665 414.657 185.878ZM382.483 219.239C383.954 218.519 385.236 217.566 386.305 216.448C384.814 219.891 384.757 223.936 386.488 227.594C389.678 234.334 397.727 237.211 404.466 234.022C405.108 233.718 405.777 233.363 406.461 232.97C408.996 231.514 411.751 229.53 414.219 227.63L384.066 458.26C384.058 458.319 384.051 458.379 384.045 458.438C384.045 458.438 384.045 458.438 384.045 458.439C384.034 458.533 384.025 458.628 384.017 458.723L377.038 458.122C377.038 458.122 377.038 458.123 377.038 458.123C377.013 458.409 376.998 458.697 376.991 458.989L376.991 458.989C376.991 458.997 376.99 459.068 376.939 459.226C376.885 459.393 376.763 459.693 376.491 460.124C375.929 461.015 374.788 462.359 372.61 464.029C368.221 467.395 361.071 470.952 351.062 474.107C331.181 480.373 302.955 484.143 271.256 483.457C239.557 482.772 211.52 477.786 191.929 470.666C182.066 467.082 175.076 463.218 170.837 459.666C168.732 457.903 167.651 456.511 167.128 455.597C166.874 455.155 166.766 454.85 166.719 454.681C166.674 454.518 166.677 454.447 166.677 454.441C166.686 454.018 166.675 453.595 166.645 453.173C166.645 453.173 166.645 453.173 166.645 453.172L149.998 223.649C153.466 223.181 156.75 221.374 159.01 218.349C161.256 215.343 162.061 211.706 161.545 208.266C165.268 211.107 169.531 213.703 174.195 216.066C172.033 217.639 170.315 219.87 169.38 222.591C166.958 229.643 170.711 237.322 177.762 239.744C204.963 249.087 239.189 254.92 276.18 255.72C311.796 256.49 345.037 252.487 372.057 244.917L370.169 238.176L372.057 244.917C379.237 242.905 383.426 235.455 381.415 228.275C380.663 225.594 379.153 223.329 377.182 221.649C379.02 220.872 380.788 220.069 382.483 219.239L379.405 212.952L382.483 219.239ZM148.934 193.971L148.132 193.372C147.737 192.988 147.36 192.608 147.001 192.232C146.094 190.091 144.656 188.247 142.866 186.85C141.309 184.152 140.81 181.87 140.851 179.958C140.921 176.745 142.617 172.305 148.663 166.908C149.001 166.606 149.35 166.304 149.71 166.002C147.289 170.097 145.717 174.781 145.603 180.061C145.492 185.209 146.79 189.853 148.934 193.971Z" fill="#4A6363" stroke="white" stroke-width="20" stroke-linecap="round" stroke-linejoin="round"/>
<path d="M318.236 268.833C350.056 268.167 375.096 283.368 383.644 292.294L315.146 411.726C251.635 362.699 167.386 281.371 166.986 274.388C211.634 282.966 278.46 269.665 318.236 268.833Z" fill="#A3E0AE"/>
<path d="M318.319 272.832C347.397 272.224 370.477 285.438 379.436 293.765L363.625 423.64C347.871 411.532 328.458 396.803 308.076 381.34C287.32 365.592 265.559 349.082 245.634 333.801C224.662 317.716 205.696 302.97 191.957 291.819C186.269 287.202 181.509 283.228 177.887 280.044C198.402 282.285 221.975 281.096 244.782 279.124C254.158 278.314 263.381 277.374 272.247 276.471C289.448 274.719 305.304 273.104 318.319 272.832Z" stroke="black" stroke-opacity="0.2" stroke-width="8"/>
<path d="M178.166 432.083L166.802 274.21C255.243 255.708 268.663 321.053 309.475 321.936C342.124 322.642 368.575 303.824 383.711 292.242L366.803 435.488C366.335 439.458 363.943 442.951 360.302 444.603C341.451 453.155 303.886 466.015 267.3 465.224C230.851 464.436 198.765 450.172 183.367 440.878C180.271 439.009 178.426 435.691 178.166 432.083Z" fill="url(#paint0_linear_128_352)"/>
<mask id="mask0_128_352" style="mask-type:alpha" maskUnits="userSpaceOnUse" x="278" y="15" width="144" height="370">
<path d="M307.722 241.264L278.602 359.551L321.122 384.517L345.399 373.857L421.547 33.2643L392.856 15.3084L358.3 35.8112L311.244 226.959C313.112 223.779 315.348 220.695 317.362 218.238C332.034 216.834 356.963 212.31 373.456 204.864C385.789 199.296 372.889 223.602 364.807 236.545C356.284 238.509 334.603 242.969 316.798 244.348C311.605 244.75 308.842 243.486 307.722 241.264Z" fill="#D9D9D9"/>
</mask>
<g mask="url(#mask0_128_352)">
<path d="M332.508 364.906C331.148 370.312 320.41 372.271 308.523 369.282C296.637 366.292 288.103 359.486 289.462 354.081L370.524 31.7625L413.57 42.5883L332.508 364.906Z" fill="#AEE5B7"/>
<path d="M328.629 363.931C328.566 364.178 327.795 365.569 323.745 366.307C320.086 366.975 315.019 366.791 309.499 365.402C303.979 364.014 299.428 361.779 296.519 359.46C293.302 356.894 293.279 355.304 293.341 355.056L373.428 36.6173L408.715 45.4919L328.629 363.931Z" stroke="black" stroke-opacity="0.2" stroke-width="8"/>
<ellipse cx="392.046" cy="37.1801" rx="22.193" ry="10.093" transform="rotate(14.117 392.046 37.1801)" fill="#AEE5B7"/>
<path d="M409.69 41.6174C409.628 41.8648 408.856 43.2552 404.807 43.9938C401.147 44.6614 396.08 44.4772 390.56 43.089C385.04 41.7008 380.489 39.466 377.581 37.1465C374.363 34.5803 374.34 32.9901 374.403 32.7428C374.465 32.4954 375.237 31.105 379.286 30.3664C382.945 29.6988 388.013 29.8829 393.532 31.2711C399.052 32.6593 403.603 34.8942 406.512 37.2136C409.73 39.7799 409.752 41.37 409.69 41.6174Z" stroke="black" stroke-opacity="0.2" stroke-width="8"/>
</g>
<path d="M289.511 353.889L298.173 319.682C325.865 325.845 340.689 319.442 344.639 315.469L331.755 366.203C330.671 368.691 324.733 372.814 309.658 369.397C294.583 365.979 289.946 357.634 289.511 353.889Z" fill="#BBFFC9" fill-opacity="0.71"/>
<circle cx="230.861" cy="360.933" r="21.6178" fill="#4A6363"/>
<path d="M182.156 431.796L171.045 277.445C191.02 273.681 206.77 274.427 219.708 277.621C233.38 280.996 244.155 287.163 253.653 294.043C258.421 297.497 262.839 301.109 267.183 304.664L267.314 304.771C271.58 308.263 275.807 311.722 280.083 314.764C288.753 320.932 298.032 325.689 309.388 325.935C338.512 326.565 362.749 312.368 378.651 300.986L362.831 435.019C362.514 437.702 360.922 439.929 358.649 440.96C340.075 449.387 303.135 461.998 267.386 461.225C231.836 460.456 200.431 446.505 185.434 437.454C183.566 436.326 182.332 434.249 182.156 431.796Z" stroke="black" stroke-opacity="0.2" stroke-width="8"/>
<circle cx="328.384" cy="360.933" r="21.6178" fill="#4A6363"/>
<circle cx="236.227" cy="355.566" r="7.2384" fill="white"/>
<circle cx="333.751" cy="355.566" r="7.2384" fill="white"/>
<path d="M299.414 400.581C299.414 410.622 289.657 418.763 277.623 418.763C265.588 418.763 255.832 410.622 255.832 400.581" stroke="#4A6363" stroke-width="12" stroke-linecap="round"/>
<defs>
<linearGradient id="paint0_linear_128_352" x1="275.487" y1="272.595" x2="271.32" y2="465.311" gradientUnits="userSpaceOnUse">
<stop stop-color="#BBFFBA"/>
<stop offset="1" stop-color="#B9FFFB"/>
</linearGradient>
</defs>
</svg>
