<svg width="551" height="550" viewBox="0 0 551 550" fill="none" xmlns="http://www.w3.org/2000/svg">
<path d="M329.173 188.471L328.935 189.305M329.173 188.471L328.935 189.305M329.173 188.471L328.935 189.305M329.173 188.471L333.512 192.115C332.312 190.82 330.755 189.826 328.935 189.305M479.337 361.56L479.337 361.559C476.813 323.858 463.117 289.209 441.543 260.911C440.94 234.87 420.426 213.751 394.633 212.186C387.584 193.114 369.249 179.517 347.722 179.517C343.424 179.517 339.242 180.062 335.246 181.089C334.838 180.882 334.421 180.687 333.996 180.507C324.951 171.416 312.404 165.771 298.55 165.771C286.078 165.771 274.669 170.345 265.917 177.888C264.675 177.515 263.39 177.261 262.078 177.136C257.093 175.474 251.769 174.577 246.254 174.577C229.889 174.577 215.369 182.445 206.259 194.568C204.32 195.131 202.394 195.725 200.481 196.349C197.845 195.92 195.144 195.698 192.396 195.698C172.672 195.698 155.635 207.117 147.5 223.673C114.087 248.357 89.1725 283.912 77.9888 325.146C69.1949 357.569 96.6411 382.993 126.19 384.183C126.665 384.214 127.141 384.229 127.617 384.229H457.759C469.729 384.229 480.194 374.377 479.337 361.56Z" fill="#F3B85F" stroke="white" stroke-width="20"/>
<path d="M258.551 197.159C176.837 197.159 108.051 252.51 87.64 327.763C80.8452 352.816 102.523 374.23 128.481 374.23H423.622C430.25 374.23 435.665 368.84 435.222 362.227C429.051 270.031 352.311 197.159 258.551 197.159Z" fill="#D8A251"/>
<circle cx="130.117" cy="334.231" r="39.9983" fill="#00B960"/>
<circle cx="155.616" cy="285.694" r="39.9983" fill="#00B960"/>
<circle cx="192.396" cy="245.696" r="39.9983" fill="#00B960"/>
<circle cx="246.254" cy="224.576" r="39.9983" fill="#00B960"/>
<circle cx="298.55" cy="215.769" r="39.9983" fill="#00B960"/>
<circle cx="347.722" cy="229.516" r="39.9983" fill="#00B960"/>
<rect x="188.472" y="208.138" width="34.5699" height="34.5699" rx="10" transform="rotate(15.9899 188.472 208.138)" fill="#FF004D"/>
<rect x="305.315" y="182.536" width="34.5699" height="34.5699" rx="10" transform="rotate(15.9899 305.315 182.536)" fill="#FF004D"/>
<rect x="267.172" y="184.756" width="32.1623" height="32.1623" rx="10" transform="rotate(74.6334 267.172 184.756)" fill="#FF004D"/>
<circle cx="391.559" cy="262.092" r="39.9983" fill="#00B960"/>
<path d="M286.688 193.159C192.928 193.159 116.189 266.031 110.018 358.227C109.575 364.84 114.99 370.23 121.617 370.23H451.759C458.386 370.23 463.801 364.84 463.359 358.227C457.188 266.031 380.448 193.159 286.688 193.159Z" fill="#EDB460"/>
<path d="M292.688 197.159C198.928 197.159 122.189 270.031 116.018 362.227C115.575 368.84 120.99 374.23 127.617 374.23H457.759C464.386 374.23 469.801 368.84 469.359 362.227C463.188 270.031 386.448 197.159 292.688 197.159Z" fill="#FFC46B"/>
<circle cx="243.322" cy="288.229" r="21.6178" fill="#204865"/>
<circle cx="340.846" cy="288.229" r="21.6178" fill="#204865"/>
<circle cx="248.689" cy="282.862" r="7.2384" fill="white"/>
<circle cx="346.213" cy="282.862" r="7.2384" fill="white"/>
<path d="M311.874 327.877C311.874 337.919 302.118 346.059 290.083 346.059C278.049 346.059 268.292 337.919 268.292 327.877" stroke="#204865" stroke-width="12" stroke-linecap="round"/>
<circle cx="286.688" cy="215.495" r="9.79709" fill="#F3B85F"/>
<circle cx="210.124" cy="254.777" r="9.79709" fill="#F3B85F"/>
<circle cx="160.319" cy="346.765" r="9.79709" fill="#F3B85F"/>
<circle cx="353.451" cy="352.348" r="9.79709" fill="#F3B85F"/>
<circle cx="210.124" cy="315.895" r="9.79709" fill="#F3B85F"/>
<circle cx="165.413" cy="285.694" r="9.79709" fill="#F3B85F"/>
<circle cx="292.085" cy="279.311" r="9.79709" fill="#F3B85F"/>
<circle cx="246.254" cy="352.348" r="9.79709" fill="#F3B85F"/>
<circle cx="352.667" cy="231.891" r="9.79709" fill="#F3B85F"/>
<circle cx="401.356" cy="278.432" r="9.79709" fill="#F3B85F"/>
<circle cx="441.354" cy="346.059" r="9.79709" fill="#F3B85F"/>
<circle cx="397.517" cy="319.644" r="9.79709" fill="#F3B85F"/>
</svg>
