<svg width="80" height="80" viewBox="0 0 80 80" fill="none" xmlns="http://www.w3.org/2000/svg">
<g clip-path="url(#clip0)">
<path d="M0 24C0 10.7452 10.7452 0 24 0H56C69.2548 0 80 10.7452 80 24V56C80 69.2548 69.2548 80 56 80H24C10.7452 80 0 69.2548 0 56V24Z" fill="url(#paint0_linear)"/>
<path fill-rule="evenodd" clip-rule="evenodd" d="M20.7963 52.2651L18.6496 61.3503L27.7347 59.2036L61.2143 25.7241L54.2758 18.7856L20.7963 52.2651ZM29.2073 62.9658C29.5686 62.8805 29.899 62.6962 30.1616 62.4337L65.4569 27.1383C66.238 26.3573 66.238 25.091 65.4569 24.3099L55.69 14.543C54.909 13.762 53.6426 13.762 52.8616 14.543L17.5662 49.8383C17.3037 50.1009 17.1194 50.4313 17.034 50.7926L14.0124 63.5813C13.6704 65.0285 14.9714 66.3295 16.4187 65.9876L29.2073 62.9658Z" fill="white"/>
<path d="M29.5213 59.45C29.1308 59.8405 28.4976 59.8405 28.1071 59.45L25.0356 56.3785C24.6451 55.988 24.6451 55.3548 25.0356 54.9643L57.6857 22.3141C58.0763 21.9236 58.7094 21.9236 59.1 22.3141L62.1715 25.3856C62.562 25.7761 62.562 26.4093 62.1715 26.7998L29.5213 59.45Z" fill="white"/>
<path d="M21.2957 63.9357C20.9052 64.3262 20.2721 64.3262 19.8815 63.9357L16.81 60.8642C16.4195 60.4737 16.4195 59.8405 16.81 59.45L17.3179 58.9421C17.7084 58.5516 18.3416 58.5516 18.7321 58.9421L21.8036 62.0136C22.1941 62.4041 22.1941 63.0373 21.8036 63.4278L21.2957 63.9357Z" fill="white"/>
<path d="M37.0294 24.4341L26.9406 14.3453C26.1596 13.5643 24.8933 13.5643 24.1122 14.3453L14.3453 24.1122C13.5643 24.8933 13.5643 26.1596 14.3453 26.9406L24.4341 37.0294L27.2625 34.201L18.5879 25.5264L25.5264 18.5879L26.7108 19.7723L23.2416 23.2416L24.6558 24.6558L28.125 21.1866L30.7236 23.7852L27.2544 27.2544L28.6686 28.6686L32.1379 25.1994L34.201 27.2625L37.0294 24.4341Z" fill="white"/>
<path d="M45.7851 52.7236L54.4736 61.4121L61.4121 54.4736L60.2276 53.2891L56.7584 56.7584L55.3442 55.3442L58.8134 51.8749L56.2148 49.2763L52.7456 52.7455L51.3313 51.3313L54.8006 47.8621L52.7236 45.7851L55.5521 42.9567L65.6547 53.0594C66.4358 53.8404 66.4358 55.1068 65.6547 55.8878L55.8878 65.6547C55.1068 66.4358 53.8405 66.4358 53.0594 65.6547L42.9567 55.552L45.7851 52.7236Z" fill="white"/>
</g>
<defs>
<linearGradient id="paint0_linear" x1="80" y1="-2.38419e-06" x2="-7.15256e-06" y2="80" gradientUnits="userSpaceOnUse">
<stop stop-color="#FEC100"/>
<stop offset="1" stop-color="#C21600"/>
</linearGradient>
<clipPath id="clip0">
<rect width="80" height="80" fill="white"/>
</clipPath>
</defs>
</svg>
